<svg xmlns="http://www.w3.org/2000/svg" xmlns:xlink="http://www.w3.org/1999/xlink" width="500" zoomAndPan="magnify" viewBox="0 0 375 374.999991" height="500" preserveAspectRatio="xMidYMid meet" version="1.0"><defs><clipPath id="5e0ebaf26f"><path d="M 75 167 L 269 167 L 269 204 L 75 204 Z M 75 167 " clip-rule="nonzero"/></clipPath><clipPath id="cf72ceb0cc"><path d="M 311.976562 180.285156 L 223.449219 306.90625 L 63.019531 194.746094 L 151.546875 68.121094 Z M 311.976562 180.285156 " clip-rule="nonzero"/></clipPath><clipPath id="0226817aab"><path d="M 311.976562 180.285156 L 223.449219 306.90625 L 63.019531 194.746094 L 151.546875 68.121094 Z M 311.976562 180.285156 " clip-rule="nonzero"/></clipPath><clipPath id="16ed3522a1"><path d="M 270.1875 193.730469 L 201.320312 292.234375 L 74.195312 203.355469 L 143.0625 104.851562 Z M 270.1875 193.730469 " clip-rule="nonzero"/></clipPath><clipPath id="fa94a0df0e"><path d="M 270.1875 193.730469 L 201.746094 291.625 L 74.621094 202.746094 L 143.0625 104.851562 Z M 270.1875 193.730469 " clip-rule="nonzero"/></clipPath><clipPath id="681db39c9f"><path d="M 252 181 L 293 181 L 293 209 L 252 209 Z M 252 181 " clip-rule="nonzero"/></clipPath><clipPath id="f9925433e1"><path d="M 311.976562 180.285156 L 223.449219 306.90625 L 63.019531 194.746094 L 151.546875 68.121094 Z M 311.976562 180.285156 " clip-rule="nonzero"/></clipPath><clipPath id="15da2fd956"><path d="M 311.976562 180.285156 L 223.449219 306.90625 L 63.019531 194.746094 L 151.546875 68.121094 Z M 311.976562 180.285156 " clip-rule="nonzero"/></clipPath><clipPath id="fe4f92cb2a"><path d="M 237 163 L 279 163 L 279 181 L 237 181 Z M 237 163 " clip-rule="nonzero"/></clipPath><clipPath id="2671bff3d5"><path d="M 311.976562 180.285156 L 223.449219 306.90625 L 63.019531 194.746094 L 151.546875 68.121094 Z M 311.976562 180.285156 " clip-rule="nonzero"/></clipPath><clipPath id="57cbe5f901"><path d="M 311.976562 180.285156 L 223.449219 306.90625 L 63.019531 194.746094 L 151.546875 68.121094 Z M 311.976562 180.285156 " clip-rule="nonzero"/></clipPath><clipPath id="13937607f1"><path d="M 180 169 L 229 169 L 229 248 L 180 248 Z M 180 169 " clip-rule="nonzero"/></clipPath><clipPath id="e53b579857"><path d="M 311.976562 180.285156 L 223.449219 306.90625 L 63.019531 194.746094 L 151.546875 68.121094 Z M 311.976562 180.285156 " clip-rule="nonzero"/></clipPath><clipPath id="a3d499a174"><path d="M 311.976562 180.285156 L 223.449219 306.90625 L 63.019531 194.746094 L 151.546875 68.121094 Z M 311.976562 180.285156 " clip-rule="nonzero"/></clipPath><clipPath id="fe8305c420"><path d="M 209 185 L 243 185 L 243 201 L 209 201 Z M 209 185 " clip-rule="nonzero"/></clipPath><clipPath id="eb18f23900"><path d="M 311.976562 180.285156 L 223.449219 306.90625 L 63.019531 194.746094 L 151.546875 68.121094 Z M 311.976562 180.285156 " clip-rule="nonzero"/></clipPath><clipPath id="a0125c4f55"><path d="M 311.976562 180.285156 L 223.449219 306.90625 L 63.019531 194.746094 L 151.546875 68.121094 Z M 311.976562 180.285156 " clip-rule="nonzero"/></clipPath><clipPath id="f5248de0bf"><path d="M 190 180 L 208 180 L 208 213 L 190 213 Z M 190 180 " clip-rule="nonzero"/></clipPath><clipPath id="1c78a5b728"><path d="M 311.976562 180.285156 L 223.449219 306.90625 L 63.019531 194.746094 L 151.546875 68.121094 Z M 311.976562 180.285156 " clip-rule="nonzero"/></clipPath><clipPath id="f064abdb4a"><path d="M 311.976562 180.285156 L 223.449219 306.90625 L 63.019531 194.746094 L 151.546875 68.121094 Z M 311.976562 180.285156 " clip-rule="nonzero"/></clipPath><clipPath id="35c3e0f34d"><path d="M 214 199 L 219 199 L 219 229 L 214 229 Z M 214 199 " clip-rule="nonzero"/></clipPath><clipPath id="8d2982ede0"><path d="M 311.976562 180.285156 L 223.449219 306.90625 L 63.019531 194.746094 L 151.546875 68.121094 Z M 311.976562 180.285156 " clip-rule="nonzero"/></clipPath><clipPath id="c68c4edfc4"><path d="M 311.976562 180.285156 L 223.449219 306.90625 L 63.019531 194.746094 L 151.546875 68.121094 Z M 311.976562 180.285156 " clip-rule="nonzero"/></clipPath><clipPath id="087617c329"><path d="M 212 191 L 227 191 L 227 195 L 212 195 Z M 212 191 " clip-rule="nonzero"/></clipPath><clipPath id="596976913d"><path d="M 311.976562 180.285156 L 223.449219 306.90625 L 63.019531 194.746094 L 151.546875 68.121094 Z M 311.976562 180.285156 " clip-rule="nonzero"/></clipPath><clipPath id="c63d7b13cb"><path d="M 311.976562 180.285156 L 223.449219 306.90625 L 63.019531 194.746094 L 151.546875 68.121094 Z M 311.976562 180.285156 " clip-rule="nonzero"/></clipPath><clipPath id="98b34b5a0a"><path d="M 195 181 L 205 181 L 205 201 L 195 201 Z M 195 181 " clip-rule="nonzero"/></clipPath><clipPath id="8204fc4bee"><path d="M 311.976562 180.285156 L 223.449219 306.90625 L 63.019531 194.746094 L 151.546875 68.121094 Z M 311.976562 180.285156 " clip-rule="nonzero"/></clipPath><clipPath id="64b73757b3"><path d="M 311.976562 180.285156 L 223.449219 306.90625 L 63.019531 194.746094 L 151.546875 68.121094 Z M 311.976562 180.285156 " clip-rule="nonzero"/></clipPath><clipPath id="f5377bee43"><path d="M 180 139 L 264 139 L 264 170 L 180 170 Z M 180 139 " clip-rule="nonzero"/></clipPath><clipPath id="7e9c257c45"><path d="M 311.976562 180.285156 L 223.449219 306.90625 L 63.019531 194.746094 L 151.546875 68.121094 Z M 311.976562 180.285156 " clip-rule="nonzero"/></clipPath><clipPath id="575354b671"><path d="M 311.976562 180.285156 L 223.449219 306.90625 L 63.019531 194.746094 L 151.546875 68.121094 Z M 311.976562 180.285156 " clip-rule="nonzero"/></clipPath><clipPath id="961bb2677f"><path d="M 199 120 L 213 120 L 213 157 L 199 157 Z M 199 120 " clip-rule="nonzero"/></clipPath><clipPath id="7277526df6"><path d="M 311.976562 180.285156 L 223.449219 306.90625 L 63.019531 194.746094 L 151.546875 68.121094 Z M 311.976562 180.285156 " clip-rule="nonzero"/></clipPath><clipPath id="98e3c9786a"><path d="M 311.976562 180.285156 L 223.449219 306.90625 L 63.019531 194.746094 L 151.546875 68.121094 Z M 311.976562 180.285156 " clip-rule="nonzero"/></clipPath><clipPath id="a933304735"><path d="M 214 145 L 260 145 L 260 152 L 214 152 Z M 214 145 " clip-rule="nonzero"/></clipPath><clipPath id="60fc7c2290"><path d="M 311.976562 180.285156 L 223.449219 306.90625 L 63.019531 194.746094 L 151.546875 68.121094 Z M 311.976562 180.285156 " clip-rule="nonzero"/></clipPath><clipPath id="5e5eb93378"><path d="M 311.976562 180.285156 L 223.449219 306.90625 L 63.019531 194.746094 L 151.546875 68.121094 Z M 311.976562 180.285156 " clip-rule="nonzero"/></clipPath><clipPath id="ae21fe47d5"><path d="M 200 154 L 237 154 L 237 168 L 200 168 Z M 200 154 " clip-rule="nonzero"/></clipPath><clipPath id="d590ddb998"><path d="M 311.976562 180.285156 L 223.449219 306.90625 L 63.019531 194.746094 L 151.546875 68.121094 Z M 311.976562 180.285156 " clip-rule="nonzero"/></clipPath><clipPath id="3f2b8d4577"><path d="M 311.976562 180.285156 L 223.449219 306.90625 L 63.019531 194.746094 L 151.546875 68.121094 Z M 311.976562 180.285156 " clip-rule="nonzero"/></clipPath><clipPath id="5eb9fa5002"><path d="M 203 156 L 232 156 L 232 167 L 203 167 Z M 203 156 " clip-rule="nonzero"/></clipPath><clipPath id="68d72eef4d"><path d="M 311.976562 180.285156 L 223.449219 306.90625 L 63.019531 194.746094 L 151.546875 68.121094 Z M 311.976562 180.285156 " clip-rule="nonzero"/></clipPath><clipPath id="03742eeb21"><path d="M 311.976562 180.285156 L 223.449219 306.90625 L 63.019531 194.746094 L 151.546875 68.121094 Z M 311.976562 180.285156 " clip-rule="nonzero"/></clipPath><clipPath id="e398b0ec74"><path d="M 110 133 L 186 133 L 186 187 L 110 187 Z M 110 133 " clip-rule="nonzero"/></clipPath><clipPath id="9c557cb206"><path d="M 311.976562 180.285156 L 223.449219 306.90625 L 63.019531 194.746094 L 151.546875 68.121094 Z M 311.976562 180.285156 " clip-rule="nonzero"/></clipPath><clipPath id="8a870a5837"><path d="M 311.976562 180.285156 L 223.449219 306.90625 L 63.019531 194.746094 L 151.546875 68.121094 Z M 311.976562 180.285156 " clip-rule="nonzero"/></clipPath><clipPath id="0137cc33d4"><path d="M 118 113 L 130 113 L 130 169 L 118 169 Z M 118 113 " clip-rule="nonzero"/></clipPath><clipPath id="c96ccfcff8"><path d="M 311.976562 180.285156 L 223.449219 306.90625 L 63.019531 194.746094 L 151.546875 68.121094 Z M 311.976562 180.285156 " clip-rule="nonzero"/></clipPath><clipPath id="12365f5c84"><path d="M 311.976562 180.285156 L 223.449219 306.90625 L 63.019531 194.746094 L 151.546875 68.121094 Z M 311.976562 180.285156 " clip-rule="nonzero"/></clipPath><clipPath id="bc11043270"><path d="M 112 98 L 136 98 L 136 156 L 112 156 Z M 112 98 " clip-rule="nonzero"/></clipPath><clipPath id="7cdf681f61"><path d="M 311.976562 180.285156 L 223.449219 306.90625 L 63.019531 194.746094 L 151.546875 68.121094 Z M 311.976562 180.285156 " clip-rule="nonzero"/></clipPath><clipPath id="1fc8b40ccc"><path d="M 311.976562 180.285156 L 223.449219 306.90625 L 63.019531 194.746094 L 151.546875 68.121094 Z M 311.976562 180.285156 " clip-rule="nonzero"/></clipPath><clipPath id="62e2771178"><path d="M 155.59375 113.613281 L 124.292969 158.390625 L 99.222656 140.863281 L 130.527344 96.089844 Z M 155.59375 113.613281 " clip-rule="nonzero"/></clipPath><clipPath id="bb09812711"><path d="M 155.59375 113.613281 L 124.292969 158.390625 L 100.257812 141.589844 L 131.5625 96.8125 Z M 155.59375 113.613281 " clip-rule="nonzero"/></clipPath><clipPath id="6849705e05"><path d="M 127 134 L 183 134 L 183 160 L 127 160 Z M 127 134 " clip-rule="nonzero"/></clipPath><clipPath id="2ad0558e52"><path d="M 311.976562 180.285156 L 223.449219 306.90625 L 63.019531 194.746094 L 151.546875 68.121094 Z M 311.976562 180.285156 " clip-rule="nonzero"/></clipPath><clipPath id="7188f47631"><path d="M 311.976562 180.285156 L 223.449219 306.90625 L 63.019531 194.746094 L 151.546875 68.121094 Z M 311.976562 180.285156 " clip-rule="nonzero"/></clipPath><clipPath id="98a62b496d"><path d="M 122 181 L 195 181 L 195 238 L 122 238 Z M 122 181 " clip-rule="nonzero"/></clipPath><clipPath id="68fa1b33b6"><path d="M 311.976562 180.285156 L 223.449219 306.90625 L 63.019531 194.746094 L 151.546875 68.121094 Z M 311.976562 180.285156 " clip-rule="nonzero"/></clipPath><clipPath id="d7dd171890"><path d="M 311.976562 180.285156 L 223.449219 306.90625 L 63.019531 194.746094 L 151.546875 68.121094 Z M 311.976562 180.285156 " clip-rule="nonzero"/></clipPath><clipPath id="37a5d63249"><path d="M 132 189 L 152 189 L 152 226 L 132 226 Z M 132 189 " clip-rule="nonzero"/></clipPath><clipPath id="87102d86d2"><path d="M 311.976562 180.285156 L 223.449219 306.90625 L 63.019531 194.746094 L 151.546875 68.121094 Z M 311.976562 180.285156 " clip-rule="nonzero"/></clipPath><clipPath id="00a9a3ff46"><path d="M 311.976562 180.285156 L 223.449219 306.90625 L 63.019531 194.746094 L 151.546875 68.121094 Z M 311.976562 180.285156 " clip-rule="nonzero"/></clipPath><clipPath id="6ff05971a1"><path d="M 153 186 L 187 186 L 187 200 L 153 200 Z M 153 186 " clip-rule="nonzero"/></clipPath><clipPath id="916ef94b10"><path d="M 311.976562 180.285156 L 223.449219 306.90625 L 63.019531 194.746094 L 151.546875 68.121094 Z M 311.976562 180.285156 " clip-rule="nonzero"/></clipPath><clipPath id="d1a50bba57"><path d="M 311.976562 180.285156 L 223.449219 306.90625 L 63.019531 194.746094 L 151.546875 68.121094 Z M 311.976562 180.285156 " clip-rule="nonzero"/></clipPath><clipPath id="2674453921"><path d="M 135 190 L 149 190 L 149 221 L 135 221 Z M 135 190 " clip-rule="nonzero"/></clipPath><clipPath id="eacf04e273"><path d="M 311.976562 180.285156 L 223.449219 306.90625 L 63.019531 194.746094 L 151.546875 68.121094 Z M 311.976562 180.285156 " clip-rule="nonzero"/></clipPath><clipPath id="243b7a10b2"><path d="M 311.976562 180.285156 L 223.449219 306.90625 L 63.019531 194.746094 L 151.546875 68.121094 Z M 311.976562 180.285156 " clip-rule="nonzero"/></clipPath></defs><g clip-path="url(#5e0ebaf26f)"><g clip-path="url(#cf72ceb0cc)"><g clip-path="url(#0226817aab)"><g clip-path="url(#16ed3522a1)"><g clip-path="url(#fa94a0df0e)"><path fill="#7ed957" d="M 75.78125 203.4375 C 90.402344 194.960938 105.390625 186.882812 121.402344 181.136719 C 137.492188 175.492188 154.3125 172.867188 171.027344 170.347656 C 179.394531 169.207031 187.769531 167.679688 196.398438 167.964844 C 205.035156 168.261719 213.398438 170.464844 221.453125 173.0625 C 237.628906 178.164062 253.359375 184.664062 268.351562 192.507812 L 268.257812 192.707031 C 252.695312 186.085938 236.875 180.222656 220.777344 175.203125 C 212.738281 172.761719 204.621094 170.460938 196.308594 170.015625 C 188.007812 169.617188 179.585938 170.808594 171.167969 171.542969 C 162.769531 172.398438 154.378906 173.46875 146.136719 175.308594 C 137.878906 177.085938 129.859375 179.75 122.027344 182.835938 C 106.292969 188.824219 91.210938 196.441406 75.886719 203.632812 L 75.78125 203.4375 " fill-opacity="1" fill-rule="nonzero"/></g></g></g></g></g><g clip-path="url(#681db39c9f)"><g clip-path="url(#f9925433e1)"><g clip-path="url(#15da2fd956)"><path fill="#7ed957" d="M 252.980469 192.398438 C 252.378906 190.324219 252.078125 187.921875 253.25 185.859375 C 254.53125 183.816406 256.949219 182.984375 259.074219 182.429688 C 261.265625 181.898438 263.46875 181.640625 265.648438 181.421875 C 267.890625 181.1875 270.175781 181.222656 272.453125 181.566406 C 274.714844 181.949219 277 182.703125 278.980469 184.042969 C 280.972656 185.375 282.472656 187.207031 283.769531 189.019531 C 286.3125 192.660156 288.480469 196.519531 290.289062 200.542969 C 290.746094 201.542969 291.195312 202.554688 291.613281 203.5625 L 292.226562 205.097656 C 292.410156 205.613281 292.738281 206.050781 292.757812 206.8125 C 292.746094 207.605469 292.035156 208.128906 291.480469 208.296875 C 290.90625 208.496094 290.296875 208.527344 289.75 208.523438 C 288.65625 208.527344 287.558594 208.574219 286.457031 208.542969 C 282.066406 208.523438 277.636719 208.304688 273.273438 207.5 C 268.960938 206.640625 264.585938 205.375 260.8125 202.851562 C 258.933594 201.621094 257.238281 200.082031 255.882812 198.3125 C 254.5625 196.523438 253.558594 194.519531 252.980469 192.398438 Z M 253.191406 192.335938 C 253.785156 194.417969 254.835938 196.382812 256.320312 197.941406 C 257.824219 199.480469 259.585938 200.730469 261.496094 201.664062 C 265.320312 203.523438 269.496094 204.621094 273.664062 205.734375 C 277.832031 206.804688 282.125 207.660156 286.472656 207.835938 C 287.558594 207.875 288.648438 207.898438 289.730469 207.851562 C 290.730469 207.863281 292 207.554688 291.988281 206.796875 C 291.992188 206.445312 291.699219 205.917969 291.480469 205.421875 L 290.757812 203.96875 C 290.261719 202.996094 289.757812 202.035156 289.21875 201.089844 C 287.070312 197.316406 284.679688 193.6875 282.109375 190.242188 C 280.820312 188.542969 279.421875 187 277.734375 185.945312 C 276.035156 184.890625 274.09375 184.210938 272.0625 183.867188 C 270.035156 183.476562 267.914062 183.441406 265.796875 183.523438 C 263.613281 183.636719 261.4375 183.636719 259.332031 183.851562 C 257.257812 184.085938 255.074219 184.578125 253.757812 186.203125 C 252.488281 187.875 252.621094 190.289062 253.191406 192.335938 " fill-opacity="1" fill-rule="nonzero"/></g></g></g><g clip-path="url(#fe4f92cb2a)"><g clip-path="url(#2671bff3d5)"><g clip-path="url(#57cbe5f901)"><path fill="#7ed957" d="M 243.714844 174.316406 C 246.765625 174.136719 249.8125 174.183594 252.84375 174.210938 C 254.339844 174.246094 255.804688 174.207031 257.148438 173.90625 C 258.480469 173.628906 259.65625 172.929688 260.871094 172.113281 C 262.085938 171.285156 263.335938 170.347656 264.789062 169.636719 C 266.242188 168.933594 267.746094 168.492188 269.210938 168.09375 C 272.113281 167.339844 275.171875 166.40625 276.910156 164.007812 L 277.308594 164.628906 L 271.785156 166.121094 C 269.925781 166.613281 267.921875 166.941406 265.894531 166.773438 C 263.90625 166.65625 262.039062 166.183594 260.25 166.046875 C 258.445312 165.886719 256.839844 166.097656 255.320312 166.859375 C 253.808594 167.625 252.316406 168.769531 250.757812 169.886719 L 246.074219 173.144531 C 244.527344 174.238281 242.921875 175.273438 241.332031 176.316406 C 240.535156 176.851562 239.757812 177.308594 239.210938 177.96875 C 238.941406 178.292969 238.75 178.730469 238.496094 179.15625 C 238.257812 179.570312 237.851562 180.050781 237.300781 180.105469 L 237.253906 179.890625 C 238.089844 179.539062 238.066406 178.472656 238.578125 177.558594 C 239.09375 176.617188 239.921875 175.984375 240.628906 175.375 C 242.074219 174.136719 243.515625 172.886719 244.996094 171.703125 L 249.429688 168.117188 C 250.933594 166.980469 252.394531 165.679688 254.296875 164.757812 C 256.195312 163.761719 258.527344 163.621094 260.476562 163.902344 C 262.46875 164.171875 264.300781 164.660156 266.089844 164.917969 C 269.605469 165.410156 273.410156 164.515625 277.136719 163.863281 L 278.195312 163.675781 L 277.535156 164.484375 C 275.464844 167.039062 272.289062 167.890625 269.535156 169.046875 C 268.132812 169.621094 266.757812 170.21875 265.558594 170.996094 C 264.367188 171.789062 263.265625 172.789062 261.984375 173.707031 C 260.726562 174.617188 259.195312 175.464844 257.523438 175.753906 C 255.882812 176.074219 254.273438 175.949219 252.746094 175.808594 C 249.71875 175.453125 246.707031 175.097656 243.695312 174.53125 L 243.714844 174.316406 " fill-opacity="1" fill-rule="nonzero"/></g></g></g><g clip-path="url(#13937607f1)"><g clip-path="url(#e53b579857)"><g clip-path="url(#a3d499a174)"><path fill="#7ed957" d="M 214.503906 199.726562 C 212.316406 203.746094 210.128906 207.796875 208.929688 212.125 C 208.328125 214.28125 208.03125 216.488281 208.023438 218.679688 C 208.050781 220.875 208.4375 223.058594 209.140625 225.148438 C 210.570312 229.332031 212.917969 233.183594 215.816406 236.628906 C 218.6875 240.109375 222.011719 243.261719 225.398438 246.335938 L 224.714844 246.554688 C 226.792969 238.519531 227.425781 230.128906 226.925781 221.875 C 226.8125 219.816406 226.582031 217.761719 226.367188 215.703125 C 226.125 213.648438 225.875 211.609375 225.308594 209.726562 C 224.765625 207.820312 223.855469 206.175781 222.398438 204.992188 C 220.96875 203.765625 219.085938 203 217.191406 201.882812 C 216.25 201.328125 215.300781 200.65625 214.480469 199.800781 C 213.671875 198.933594 213.074219 198.078125 212.472656 197.167969 C 211.292969 195.351562 210.296875 193.488281 209.320312 191.679688 C 208.324219 189.871094 207.304688 188.128906 206.058594 186.601562 C 204.785156 185.054688 203.390625 183.527344 201.921875 182.113281 C 196.007812 176.480469 188.820312 172.089844 180.851562 169.683594 L 180.90625 169.472656 C 189.128906 171.023438 196.917969 175.042969 203.238281 180.691406 C 204.832031 182.105469 206.316406 183.582031 207.75 185.199219 C 209.167969 186.878906 210.28125 188.730469 211.328125 190.554688 C 212.378906 192.371094 213.320312 194.210938 214.421875 195.886719 C 214.953125 196.714844 215.566406 197.550781 216.167969 198.222656 C 216.777344 198.886719 217.527344 199.453125 218.359375 199.972656 C 220.015625 201.015625 222.039062 201.875 223.765625 203.398438 C 225.539062 204.898438 226.671875 207.09375 227.183594 209.203125 C 227.726562 211.34375 227.894531 213.460938 228.058594 215.542969 C 228.214844 217.644531 228.269531 219.742188 228.273438 221.835938 C 228.277344 230.234375 227.238281 238.558594 225.539062 246.746094 L 225.394531 247.417969 L 224.855469 246.96875 C 221.332031 244.035156 217.722656 241.15625 214.554688 237.734375 C 211.417969 234.3125 208.703125 230.289062 207.347656 225.71875 C 205.910156 221.191406 205.964844 216.125 207.597656 211.714844 C 209.109375 207.25 211.644531 203.328125 214.3125 199.609375 L 214.503906 199.726562 " fill-opacity="1" fill-rule="nonzero"/></g></g></g><g clip-path="url(#fe8305c420)"><g clip-path="url(#eb18f23900)"><g clip-path="url(#a0125c4f55)"><path fill="#7ed957" d="M 213.304688 195.15625 C 215.125 196.75 217.332031 197.617188 219.558594 198.050781 C 221.808594 198.5 224.125 198.386719 226.460938 198.175781 C 228.800781 198 231.207031 197.726562 233.582031 197.324219 C 235.960938 196.902344 238.304688 196.320312 240.605469 195.632812 L 240.550781 196.457031 C 237.902344 195.480469 235.230469 194.578125 232.613281 193.542969 C 230.011719 192.472656 227.378906 191.464844 224.8125 190.316406 C 222.253906 189.207031 219.789062 188.042969 217.164062 187.550781 C 214.574219 187.085938 211.773438 187.1875 209.316406 188.574219 L 209.183594 188.410156 C 211.246094 186.320312 214.445312 185.570312 217.382812 185.789062 C 220.371094 186.015625 223.171875 187.042969 225.75 188.179688 C 228.332031 189.296875 230.847656 190.570312 233.398438 191.765625 C 235.925781 192.992188 238.402344 194.359375 240.90625 195.652344 L 242.085938 196.257812 L 240.84375 196.484375 C 238.449219 196.914062 236.09375 197.457031 233.773438 198.167969 C 231.457031 198.921875 229.144531 199.710938 226.675781 200.085938 C 224.222656 200.433594 221.625 200.367188 219.167969 199.640625 C 216.734375 198.917969 214.445312 197.429688 213.140625 195.300781 L 213.304688 195.15625 " fill-opacity="1" fill-rule="nonzero"/></g></g></g><g clip-path="url(#f5248de0bf)"><g clip-path="url(#1c78a5b728)"><g clip-path="url(#f064abdb4a)"><path fill="#7ed957" d="M 202.695312 180.382812 C 200.265625 181.886719 199.050781 184.429688 197.753906 186.898438 C 196.464844 189.378906 195.394531 191.941406 194.335938 194.527344 C 193.253906 197.097656 192.25 199.757812 191.691406 202.523438 C 191.148438 205.296875 191.0625 208.144531 191.277344 210.949219 L 190.261719 210.542969 C 192.160156 208.320312 194.398438 206.457031 196.558594 204.632812 C 198.707031 202.808594 200.730469 200.925781 202.300781 198.773438 C 203.867188 196.636719 204.925781 194.121094 205.339844 191.441406 C 205.78125 188.757812 205.613281 185.945312 204.804688 183.214844 L 205.003906 183.125 C 206.5 185.617188 207.171875 188.617188 207.039062 191.609375 C 206.886719 194.585938 205.960938 197.617188 204.203125 200.113281 C 202.453125 202.621094 200.121094 204.496094 197.84375 206.238281 C 195.5625 207.988281 193.222656 209.539062 191.105469 211.375 L 190.007812 212.332031 L 190.089844 210.964844 C 190.253906 208.078125 190.601562 205.242188 190.988281 202.40625 C 191.390625 199.574219 191.789062 196.707031 192.613281 193.917969 C 193.480469 191.148438 194.742188 188.507812 196.28125 186.054688 C 197.773438 183.695312 199.695312 181.007812 202.609375 180.179688 L 202.695312 180.382812 " fill-opacity="1" fill-rule="nonzero"/></g></g></g><g clip-path="url(#35c3e0f34d)"><g clip-path="url(#8d2982ede0)"><g clip-path="url(#c68c4edfc4)"><path fill="#7ed957" d="M 218.652344 228.195312 C 217.1875 226.078125 216.65625 223.472656 216.734375 221.007812 C 216.816406 219.753906 217.171875 218.535156 217.242188 217.3125 C 217.339844 216.089844 217.230469 214.875 217.039062 213.660156 C 216.617188 211.238281 216.402344 208.882812 215.984375 206.589844 C 215.675781 204.273438 215.234375 202.046875 214.511719 199.644531 L 214.695312 199.523438 C 216.644531 201.207031 217.753906 203.714844 218.277344 206.183594 C 218.714844 208.6875 218.683594 211.21875 218.234375 213.664062 C 218.046875 214.882812 217.882812 216.101562 217.957031 217.324219 C 218.011719 218.539062 218.367188 219.746094 218.546875 220.933594 C 218.820312 223.320312 218.851562 225.605469 218.863281 228.132812 L 218.652344 228.195312 " fill-opacity="1" fill-rule="nonzero"/></g></g></g><g clip-path="url(#087617c329)"><g clip-path="url(#596976913d)"><g clip-path="url(#c63d7b13cb)"><path fill="#7ed957" d="M 226.351562 193.757812 C 224.953125 194.042969 223.847656 193.988281 222.734375 193.65625 C 222.1875 193.441406 221.628906 193.039062 221.027344 192.953125 C 220.433594 192.851562 219.839844 193.019531 219.253906 193.242188 C 218.09375 193.753906 216.882812 194.03125 215.539062 194.011719 C 214.25 193.898438 212.707031 193.3125 212.027344 192.003906 L 212.144531 191.824219 C 213.527344 191.863281 214.476562 191.734375 215.601562 191.675781 C 216.699219 191.71875 217.910156 191.695312 219.171875 192.050781 C 219.808594 192.195312 220.425781 192.3125 221.054688 192.25 C 221.671875 192.195312 222.332031 191.894531 222.988281 191.851562 C 224.28125 191.863281 225.550781 192.414062 226.433594 193.550781 L 226.351562 193.757812 " fill-opacity="1" fill-rule="nonzero"/></g></g></g><g clip-path="url(#98b34b5a0a)"><g clip-path="url(#8204fc4bee)"><g clip-path="url(#64b73757b3)"><path fill="#7ed957" d="M 195.875 200.621094 C 196.046875 198.734375 196.648438 197.132812 197.558594 195.667969 C 198.058594 194.953125 198.742188 194.328125 199.167969 193.570312 C 199.609375 192.820312 199.835938 191.976562 200.003906 191.105469 C 200.289062 189.359375 200.828125 187.726562 201.429688 186.125 C 202.113281 184.550781 202.855469 183.191406 203.578125 181.5 L 203.792969 181.507812 C 204.496094 183.296875 204.132812 185.292969 203.601562 186.945312 C 202.976562 188.589844 202.199219 190.160156 201.105469 191.585938 C 200.582031 192.3125 200.105469 193.050781 199.816406 193.871094 C 199.503906 194.683594 199.449219 195.625 199.1875 196.460938 C 198.566406 198.109375 197.554688 199.570312 196.0625 200.722656 L 195.875 200.621094 " fill-opacity="1" fill-rule="nonzero"/></g></g></g><g clip-path="url(#f5377bee43)"><g clip-path="url(#7e9c257c45)"><g clip-path="url(#575354b671)"><path fill="#7ed957" d="M 211.414062 149.902344 C 215.621094 151.257812 219.867188 152.40625 224.15625 153.226562 C 228.425781 153.972656 232.820312 154.421875 236.8125 153.085938 C 238.804688 152.414062 240.761719 151.460938 242.84375 150.597656 C 244.921875 149.738281 247.070312 149.050781 249.246094 148.542969 C 253.589844 147.441406 257.996094 146.929688 262.34375 146.179688 L 262.269531 146.925781 C 255.308594 144.082031 248.054688 141.605469 240.613281 141.214844 C 236.910156 141.03125 233.195312 141.265625 229.6875 142.273438 C 226.175781 143.203125 222.988281 145.097656 219.601562 146.855469 C 216.210938 148.597656 212.925781 150.199219 210.027344 152.453125 C 208.550781 153.554688 207.113281 154.769531 205.628906 155.960938 C 204.117188 157.132812 202.585938 158.269531 201.019531 159.347656 C 194.761719 163.714844 187.898438 167.183594 180.746094 169.65625 L 180.660156 169.449219 C 187.484375 166.199219 193.914062 162.289062 199.894531 157.800781 C 202.890625 155.554688 205.597656 153.042969 208.632812 150.632812 C 211.667969 148.171875 215.230469 146.46875 218.578125 144.835938 C 221.925781 143.210938 225.339844 141.273438 229.183594 140.347656 C 233 139.433594 236.929688 139.292969 240.738281 139.769531 C 248.402344 140.691406 255.457031 143.664062 262.550781 146.195312 L 263.921875 146.6875 L 262.480469 146.949219 C 258.136719 147.726562 253.84375 148.757812 249.675781 150.058594 C 247.601562 150.734375 245.558594 151.480469 243.574219 152.324219 C 241.597656 153.171875 239.625 154.261719 237.382812 154.910156 C 232.863281 156.21875 228.152344 155.738281 223.851562 154.617188 C 219.527344 153.53125 215.328125 152.03125 211.339844 150.097656 L 211.414062 149.902344 " fill-opacity="1" fill-rule="nonzero"/></g></g></g><g clip-path="url(#961bb2677f)"><g clip-path="url(#7277526df6)"><g clip-path="url(#98e3c9786a)"><path fill="#7ed957" d="M 207.78125 152.433594 C 209.65625 150.464844 209.824219 147.726562 209.484375 145.21875 C 209.125 142.675781 208.453125 139.914062 208.433594 137.152344 C 208.382812 134.386719 208.804688 131.640625 209.398438 128.972656 C 210.003906 126.300781 210.699219 123.683594 211.542969 121.089844 L 212.15625 121.539062 C 209.640625 123.707031 207.25 126.023438 205.34375 128.574219 C 204.417969 129.867188 203.589844 131.214844 203.058594 132.664062 C 202.511719 134.117188 202.21875 135.660156 201.996094 137.234375 C 201.601562 140.40625 201.605469 143.632812 201.84375 146.925781 C 202.078125 150.207031 202.382812 153.5 202.902344 156.789062 L 202.691406 156.851562 C 201.421875 153.738281 200.617188 150.453125 200.066406 147.132812 C 199.503906 143.835938 199.207031 140.359375 199.6875 136.933594 C 200.082031 133.488281 201.574219 130.003906 203.875 127.402344 C 206.144531 124.75 208.984375 122.871094 211.667969 120.914062 L 212.796875 120.089844 L 212.28125 121.363281 C 211.277344 123.839844 210.582031 126.457031 210.363281 129.125 C 210.105469 131.789062 210.230469 134.449219 210.375 137.074219 C 210.453125 138.394531 210.546875 139.703125 210.695312 141.011719 C 210.863281 142.320312 211.035156 143.6875 211.101562 145.089844 C 211.257812 147.832031 210.40625 151.121094 207.910156 152.605469 L 207.78125 152.433594 " fill-opacity="1" fill-rule="nonzero"/></g></g></g><g clip-path="url(#a933304735)"><g clip-path="url(#60fc7c2290)"><g clip-path="url(#5e5eb93378)"><path fill="#7ed957" d="M 214.472656 148.101562 C 216.460938 147.792969 218.421875 148.230469 220.273438 148.605469 C 222.175781 149.050781 223.789062 149.34375 225.589844 149.269531 C 227.382812 149.265625 229.292969 149.046875 231.125 148.546875 C 232.960938 148.039062 234.730469 147.296875 236.582031 146.6875 C 238.429688 146.039062 240.339844 145.585938 242.28125 145.371094 C 244.210938 145.125 246.160156 144.988281 248.09375 145.039062 C 251.976562 145.179688 255.777344 145.785156 259.507812 146.808594 L 259.484375 147.035156 C 255.625 147.375 251.820312 147.320312 248.070312 147.363281 C 244.308594 147.308594 240.601562 147.433594 236.855469 147.84375 C 234.980469 148.078125 233.136719 148.558594 231.34375 149.21875 C 229.546875 149.882812 227.773438 150.734375 225.753906 151.082031 C 223.730469 151.449219 221.550781 150.894531 219.8125 150.234375 C 217.996094 149.617188 216.304688 148.789062 214.464844 148.324219 L 214.472656 148.101562 " fill-opacity="1" fill-rule="nonzero"/></g></g></g><g clip-path="url(#ae21fe47d5)"><g clip-path="url(#d590ddb998)"><g clip-path="url(#3f2b8d4577)"><path fill="#7ed957" d="M 200.550781 158.5 C 202.777344 160.496094 204.601562 162.917969 207.21875 163.675781 C 209.804688 164.609375 212.746094 164.664062 215.644531 165.191406 C 218.558594 165.644531 221.472656 166.152344 224.421875 166.234375 C 227.367188 166.34375 230.316406 166.132812 233.246094 165.871094 L 232.9375 167.300781 C 230.539062 166.324219 228.167969 165.269531 225.820312 164.191406 C 223.464844 163.125 221.113281 162.046875 218.824219 160.851562 C 216.515625 159.703125 214.269531 158.40625 211.992188 157.179688 C 210.898438 156.550781 209.792969 155.964844 208.613281 155.578125 C 207.449219 155.171875 206.210938 154.917969 204.972656 155.230469 L 204.886719 155.023438 C 206.070312 154.339844 207.550781 154.34375 208.867188 154.546875 C 210.203125 154.773438 211.480469 155.195312 212.71875 155.6875 C 215.085938 156.726562 217.492188 157.691406 219.824219 158.800781 C 222.175781 159.871094 224.46875 161.058594 226.761719 162.265625 C 229.058594 163.445312 231.347656 164.660156 233.589844 165.945312 L 236.363281 167.53125 L 233.277344 167.375 C 230.3125 167.226562 227.355469 166.984375 224.398438 166.894531 C 221.441406 166.777344 218.476562 166.921875 215.5 166.859375 C 212.5625 166.785156 209.496094 166.570312 206.5625 165.289062 C 205.113281 164.691406 203.765625 163.582031 202.859375 162.378906 C 201.914062 161.183594 201.160156 159.90625 200.378906 158.640625 L 200.550781 158.5 " fill-opacity="1" fill-rule="nonzero"/></g></g></g><g clip-path="url(#5eb9fa5002)"><g clip-path="url(#68d72eef4d)"><g clip-path="url(#03742eeb21)"><path fill="#7ed957" d="M 203.328125 156.402344 C 205.582031 157.664062 207.722656 158.566406 209.929688 159.53125 C 210.988281 160.027344 212.179688 160.644531 213.371094 161.027344 C 214.574219 161.421875 215.828125 161.597656 217.097656 161.726562 C 219.648438 161.925781 222.121094 162.425781 224.5625 163.042969 C 226.980469 163.753906 229.359375 164.625 231.636719 165.925781 L 231.582031 166.136719 C 228.964844 166.203125 226.457031 165.824219 223.988281 165.292969 C 221.554688 164.667969 219.128906 163.929688 216.800781 162.886719 C 215.628906 162.386719 214.433594 161.949219 213.191406 161.71875 C 211.953125 161.453125 210.667969 161.554688 209.339844 161.25 C 206.808594 160.554688 204.398438 158.953125 203.164062 156.546875 L 203.328125 156.402344 " fill-opacity="1" fill-rule="nonzero"/></g></g></g><g clip-path="url(#e398b0ec74)"><g clip-path="url(#9c557cb206)"><g clip-path="url(#8a870a5837)"><path fill="#7ed957" d="M 126.453125 160.390625 C 132.15625 161.523438 137.878906 160.996094 143.589844 160.183594 C 149.316406 159.460938 155.058594 158.808594 160.242188 156.609375 C 165.445312 154.46875 170.128906 151.105469 174.242188 147.128906 C 178.359375 143.144531 181.824219 138.472656 184.816406 133.554688 L 185.121094 134.082031 C 177.011719 134.242188 168.941406 135.691406 161.3125 138.234375 C 157.5 139.515625 153.800781 141.085938 150.289062 143.007812 C 146.769531 144.902344 143.484375 147.226562 140.261719 149.648438 C 137.050781 152.070312 133.816406 154.613281 130.738281 157.167969 C 127.6875 159.773438 124.980469 162.570312 123.351562 166.210938 C 122.480469 168.007812 121.75 169.902344 120.867188 171.777344 C 119.972656 173.640625 118.984375 175.449219 117.898438 177.199219 C 115.75 180.71875 113.113281 183.894531 110.230469 186.785156 L 110.066406 186.628906 C 112.691406 183.527344 114.925781 180.128906 116.847656 176.585938 C 118.824219 173.046875 120.066406 169.289062 121.679688 165.449219 C 123.261719 161.542969 126.136719 158.117188 129.292969 155.492188 C 132.457031 152.828125 135.605469 150.3125 138.875 147.804688 C 145.417969 142.859375 152.855469 138.789062 160.800781 136.585938 C 168.734375 134.277344 176.964844 133.554688 185.109375 133.386719 L 185.757812 133.371094 L 185.414062 133.921875 C 182.355469 138.84375 179.042969 143.628906 175.121094 147.984375 C 171.210938 152.3125 166.496094 156.105469 160.980469 158.398438 C 155.429688 160.691406 149.484375 161.210938 143.75 161.714844 C 140.867188 161.9375 137.945312 162.152344 135.019531 162.066406 C 132.09375 161.925781 129.179688 161.484375 126.398438 160.601562 L 126.453125 160.390625 " fill-opacity="1" fill-rule="nonzero"/></g></g></g><g clip-path="url(#0137cc33d4)"><g clip-path="url(#c96ccfcff8)"><g clip-path="url(#12365f5c84)"><path fill="#7ed957" d="M 129.355469 113.105469 C 129.179688 117.933594 128.6875 122.640625 128.007812 127.355469 C 127.597656 129.695312 127.082031 132.042969 126.839844 134.414062 C 126.574219 136.789062 126.761719 139.171875 126.410156 141.65625 C 126.085938 144.207031 124.734375 146.421875 123.808594 148.492188 C 122.84375 150.617188 122.058594 152.808594 121.433594 155.015625 C 120.097656 159.425781 119.742188 164.0625 120.65625 168.785156 L 120.449219 168.859375 C 118.164062 164.53125 117.941406 159.179688 119.183594 154.402344 C 119.804688 152 120.816406 149.730469 121.96875 147.578125 C 123.121094 145.363281 124.574219 143.566406 125.242188 141.390625 C 126.539062 136.902344 126.007812 131.925781 126.199219 127.152344 C 126.546875 122.363281 127.488281 117.609375 129.136719 113.0625 L 129.355469 113.105469 " fill-opacity="1" fill-rule="nonzero"/></g></g></g><g clip-path="url(#bc11043270)"><g clip-path="url(#7cdf681f61)"><g clip-path="url(#1fc8b40ccc)"><g clip-path="url(#62e2771178)"><g clip-path="url(#bb09812711)"><path fill="#7ed957" d="M 131.425781 142.046875 C 130.582031 145.28125 129.304688 148.40625 127.394531 151.238281 C 126.394531 152.609375 125.203125 153.945312 123.484375 154.730469 C 122.632812 155.117188 121.554688 155.300781 120.519531 154.992188 C 119.5 154.683594 118.730469 153.980469 118.125 153.296875 C 113.90625 147.597656 112.382812 140.511719 112.792969 133.683594 C 113.191406 126.828125 115.59375 120.207031 119.230469 114.554688 C 122.855469 108.851562 127.402344 103.925781 132.15625 99.226562 L 133.144531 98.242188 L 132.84375 99.644531 C 132.101562 103.074219 133.730469 106.386719 134.863281 109.828125 C 135.429688 111.566406 135.914062 113.449219 135.796875 115.4375 C 135.730469 117.484375 134.875 119.242188 134.378906 120.863281 C 133.328125 124.136719 132.972656 127.714844 132.734375 131.296875 C 132.464844 134.886719 132.308594 138.539062 131.425781 142.046875 Z M 131.214844 141.992188 C 132.105469 138.5 131.992188 134.878906 131.851562 131.285156 C 131.746094 127.695312 131.574219 123.976562 132.578125 120.324219 C 133.082031 118.5 133.792969 116.921875 133.855469 115.320312 C 133.980469 113.699219 133.628906 112.015625 133.226562 110.296875 C 132.808594 108.589844 132.257812 106.839844 131.914062 105.023438 C 131.5625 103.207031 131.507812 101.253906 132.03125 99.421875 L 132.726562 99.84375 C 127.75 104.207031 123.472656 109.414062 120.378906 115.222656 C 117.324219 121.019531 115.214844 127.328125 115.03125 133.789062 C 114.757812 140.195312 116.324219 146.789062 119.570312 152.109375 C 120.445312 153.316406 121.570312 153.914062 123 153.433594 C 124.394531 152.984375 125.671875 151.917969 126.734375 150.710938 C 128.859375 148.25 130.351562 145.179688 131.214844 141.992188 " fill-opacity="1" fill-rule="nonzero"/></g></g></g></g></g><g clip-path="url(#6849705e05)"><g clip-path="url(#2ad0558e52)"><g clip-path="url(#7188f47631)"><path fill="#7ed957" d="M 127.785156 159.570312 C 132.667969 157.921875 137.597656 156.796875 142.5 155.640625 C 144.976562 155.132812 147.480469 154.667969 149.867188 153.800781 C 152.25 152.949219 154.488281 151.746094 156.578125 150.320312 C 160.738281 147.46875 164.769531 144.339844 169.109375 141.632812 C 173.3125 139.042969 177.660156 135.832031 182.738281 134.632812 L 182.824219 134.839844 C 178.328125 137.308594 174.6875 140.671875 170.375 143.589844 C 166.066406 146.265625 161.859375 149.160156 157.175781 151.359375 C 154.851562 152.476562 152.46875 153.445312 150.121094 154.460938 C 147.777344 155.476562 145.429688 156.574219 142.980469 157.394531 C 138.058594 158.910156 132.960938 159.617188 127.824219 159.785156 L 127.785156 159.570312 " fill-opacity="1" fill-rule="nonzero"/></g></g></g><g clip-path="url(#98a62b496d)"><g clip-path="url(#68fa1b33b6)"><g clip-path="url(#d7dd171890)"><path fill="#7ed957" d="M 161.8125 199.285156 C 160.699219 203.988281 160.992188 208.871094 162.289062 213.410156 C 163.625 217.945312 165.777344 222.253906 168.726562 225.929688 C 170.203125 227.746094 171.78125 229.453125 173.726562 230.675781 C 175.671875 231.914062 177.835938 232.855469 180.089844 233.605469 C 184.636719 235.074219 189.375 236.128906 194.171875 236.492188 L 193.800781 236.992188 C 191.039062 229.5625 187.828125 222.109375 182.75 216.101562 C 180.222656 213.105469 177.300781 210.550781 173.925781 208.570312 C 170.597656 206.523438 166.980469 204.816406 163.53125 202.632812 C 161.808594 201.566406 160.105469 200.28125 158.707031 198.886719 L 154.324219 194.773438 C 151.441406 192.179688 148.257812 189.882812 144.804688 188.0625 C 137.902344 184.40625 130.085938 182.40625 122.117188 182.367188 L 122.101562 182.148438 C 130.0625 181.351562 138.351562 182.78125 145.660156 186.359375 C 149.339844 188.097656 152.78125 190.367188 155.847656 193.074219 C 158.875 195.648438 161.488281 198.703125 164.773438 200.722656 C 168.011719 202.882812 171.589844 204.675781 175 206.871094 C 178.441406 209.039062 181.511719 211.914062 183.933594 215.167969 C 188.78125 221.746094 191.5 229.367188 194.496094 236.730469 L 194.71875 237.269531 L 194.121094 237.238281 C 189.269531 236.90625 184.417969 236.277344 179.667969 235.046875 C 177.289062 234.425781 174.894531 233.605469 172.734375 232.242188 C 170.570312 230.898438 168.699219 229.109375 167.210938 227.113281 C 164.242188 223.140625 161.945312 218.617188 160.878906 213.769531 C 159.789062 208.953125 159.863281 203.796875 161.597656 199.21875 L 161.8125 199.285156 " fill-opacity="1" fill-rule="nonzero"/></g></g></g><g clip-path="url(#37a5d63249)"><g clip-path="url(#87102d86d2)"><g clip-path="url(#00a9a3ff46)"><path fill="#7ed957" d="M 149.652344 190.808594 C 150.765625 192.074219 151.203125 193.753906 151.46875 195.386719 C 151.710938 197.035156 151.6875 198.71875 151.507812 200.40625 C 151.175781 203.804688 149.679688 206.988281 147.867188 209.785156 C 146.035156 212.597656 143.894531 215.101562 141.648438 217.519531 C 139.402344 219.9375 136.96875 222.175781 134.371094 224.191406 L 132.949219 225.300781 L 133.3125 223.617188 C 134.027344 220.316406 134.660156 217 135.125 213.65625 C 135.640625 210.308594 135.609375 206.945312 136.351562 203.496094 C 137.128906 199.976562 139.328125 197.011719 141.589844 194.550781 C 142.691406 193.34375 143.683594 191.894531 145.023438 190.757812 C 145.691406 190.214844 146.457031 189.65625 147.386719 189.609375 C 148.324219 189.578125 149.097656 190.167969 149.652344 190.808594 Z M 149.488281 190.949219 C 148.9375 190.355469 148.203125 189.824219 147.402344 189.914062 C 146.621094 190.03125 145.953125 190.554688 145.425781 191.175781 C 144.359375 192.417969 143.644531 193.917969 142.703125 195.394531 C 140.894531 198.269531 139.039062 200.90625 138.085938 203.988281 C 137.539062 205.511719 137.171875 207.140625 136.808594 208.792969 C 136.4375 210.4375 136.078125 212.097656 135.8125 213.761719 C 135.265625 217.089844 134.886719 220.445312 134.582031 223.816406 L 133.527344 223.238281 C 135.8125 220.941406 137.996094 218.574219 140.097656 216.132812 C 142.164062 213.683594 144.144531 211.117188 145.9375 208.511719 C 147.71875 205.890625 149.191406 203.128906 150.132812 200.128906 C 150.578125 198.609375 150.855469 197.023438 150.875 195.433594 C 150.871094 193.84375 150.515625 192.191406 149.488281 190.949219 " fill-opacity="1" fill-rule="nonzero"/></g></g></g><g clip-path="url(#6ff05971a1)"><g clip-path="url(#916ef94b10)"><g clip-path="url(#d1a50bba57)"><path fill="#7ed957" d="M 159.382812 197.859375 C 161.636719 198.3125 163.890625 198.304688 166.117188 198.171875 C 168.351562 198.046875 170.5625 197.695312 172.703125 197.183594 C 174.828125 196.648438 177.058594 196.050781 179.226562 195.316406 C 181.410156 194.605469 183.511719 193.667969 185.636719 192.757812 L 185.601562 193.464844 C 182.980469 192.296875 180.238281 191.472656 177.535156 190.601562 C 174.824219 189.761719 172.09375 188.957031 169.410156 188.683594 C 166.699219 188.347656 164.207031 188.796875 161.53125 189.871094 C 158.878906 190.832031 156.121094 192.066406 153.164062 192.261719 L 153.128906 192.046875 C 155.839844 191.113281 158.1875 189.5 160.808594 188.222656 C 162.121094 187.585938 163.480469 186.921875 165.035156 186.574219 C 166.5625 186.246094 168.144531 186.175781 169.660156 186.371094 C 172.707031 186.738281 175.476562 187.78125 178.167969 188.847656 C 180.871094 189.9375 183.417969 191.375 185.949219 192.769531 L 186.722656 193.207031 L 185.910156 193.480469 C 183.75 194.222656 181.65625 195.175781 179.617188 196.246094 C 177.554688 197.292969 175.492188 198.40625 173.191406 199.066406 C 170.875 199.695312 168.492188 199.875 166.128906 199.785156 C 163.785156 199.664062 161.378906 199.203125 159.308594 198.066406 L 159.382812 197.859375 " fill-opacity="1" fill-rule="nonzero"/></g></g></g><g clip-path="url(#2674453921)"><g clip-path="url(#eacf04e273)"><g clip-path="url(#243b7a10b2)"><path fill="#7ed957" d="M 135.578125 220.871094 C 135.421875 219.382812 135.996094 217.933594 136.507812 216.695312 C 137.042969 215.425781 137.636719 214.171875 138.394531 213.015625 C 139.171875 211.871094 140.105469 210.808594 140.828125 209.625 C 141.546875 208.449219 142.066406 207.167969 142.542969 205.855469 C 143.417969 203.195312 144.800781 200.78125 145.546875 198.363281 C 146.417969 195.9375 146.902344 193.265625 147.761719 190.558594 L 147.984375 190.566406 C 148.488281 193.347656 148.574219 196.21875 147.773438 199.066406 C 147.351562 200.488281 146.640625 201.773438 145.925781 202.972656 C 145.222656 204.1875 144.433594 205.300781 143.601562 206.429688 C 142.789062 207.546875 142.023438 208.703125 141.449219 209.953125 C 140.875 211.207031 140.507812 212.566406 140 213.859375 C 139.472656 215.136719 138.761719 216.316406 138.015625 217.476562 C 137.253906 218.667969 136.402344 219.644531 135.796875 220.898438 L 135.578125 220.871094 " fill-opacity="1" fill-rule="nonzero"/></g></g></g></svg>