<svg xmlns="http://www.w3.org/2000/svg" xmlns:xlink="http://www.w3.org/1999/xlink" width="500" zoomAndPan="magnify" viewBox="0 0 375 374.999991" height="500" preserveAspectRatio="xMidYMid meet" version="1.0"><defs><clipPath id="a40c726104"><path d="M 92 111 L 298 111 L 298 258 L 92 258 Z M 92 111 " clip-rule="nonzero"/></clipPath><clipPath id="3873ca3f46"><path d="M 148.890625 62.15625 L 313.792969 152.960938 L 225.882812 312.605469 L 60.980469 221.800781 Z M 148.890625 62.15625 " clip-rule="nonzero"/></clipPath><clipPath id="2ba2d118d9"><path d="M 226.105469 312.835938 L 61.203125 222.03125 L 149.113281 62.386719 L 314.015625 153.191406 Z M 226.105469 312.835938 " clip-rule="nonzero"/></clipPath></defs><g clip-path="url(#a40c726104)"><g clip-path="url(#3873ca3f46)"><g clip-path="url(#2ba2d118d9)"><path fill="#7ed957" d="M 145.082031 257.574219 C 142.996094 252.5625 142.15625 247.632812 142.550781 242.304688 C 134.800781 248.390625 126.457031 252.460938 116.375 252.339844 C 116.347656 251.15625 116.789062 250.25 117.234375 249.382812 C 119.109375 245.71875 121.214844 242.222656 124.199219 239.304688 C 129.414062 234.199219 134.765625 229.265625 141.21875 225.734375 C 144.164062 224.125 147.25 222.8125 150.519531 222.046875 C 151.921875 221.71875 153.136719 221.054688 154.167969 220.054688 C 156.578125 217.828125 158.441406 215.164062 160.886719 212.207031 C 153.78125 213.679688 147.15625 214.628906 140.378906 212.367188 C 141.230469 209.527344 142.875 207.359375 144.769531 205.359375 C 153.464844 196.207031 164.328125 192.230469 176.722656 191.988281 C 178.429688 191.957031 179.707031 191.472656 180.960938 190.3125 C 184.257812 187.257812 187.679688 184.335938 191.34375 181.09375 C 188.453125 181.273438 185.941406 181.550781 183.425781 181.5625 C 180.425781 181.582031 177.40625 181.433594 174.507812 180.5 C 173.058594 180.027344 171.574219 179.859375 170.054688 179.996094 C 166.800781 180.28125 163.5625 180.65625 160.367188 181.382812 C 159.269531 181.632812 158.621094 182.148438 158.148438 183.15625 C 154.992188 189.945312 149.097656 193.292969 142.328125 195.285156 C 137.84375 196.609375 133.246094 197.683594 128.476562 196.5625 C 127.085938 196.238281 125.722656 195.949219 124.648438 194.96875 C 124.625 193.488281 125.933594 193 126.582031 192.085938 C 131.996094 184.5 139.773438 181.015625 148.691406 179.675781 C 151.023438 179.324219 153.410156 179.578125 155.671875 180.144531 C 157.722656 180.660156 159.617188 180.375 161.570312 179.914062 C 162.285156 179.746094 163.011719 179.601562 164.140625 179.363281 C 161.765625 178.203125 159.476562 178.15625 157.363281 177.527344 C 154.800781 176.757812 152.214844 176.082031 149.757812 175.019531 C 147.925781 174.246094 146.039062 174.082031 144.101562 174.523438 C 137.753906 175.851562 131.996094 174.246094 126.484375 171.269531 C 125.53125 170.757812 124.714844 170.710938 123.644531 171.035156 C 116.503906 173.167969 109.316406 173.371094 102.132812 171.164062 C 98.503906 170.050781 95.191406 168.355469 92.253906 165.621094 C 97.433594 158.179688 105.347656 157.570312 113.355469 156.753906 C 113.121094 154.898438 112.09375 153.285156 111.976562 151.320312 C 114.285156 149.644531 116.984375 149.851562 119.613281 150.101562 C 126.484375 150.746094 132.332031 153.703125 137.769531 157.886719 C 142.226562 161.308594 144.757812 165.910156 146.894531 170.832031 C 147.589844 172.441406 148.578125 173.273438 150.132812 173.945312 C 154.851562 175.960938 159.828125 177.003906 164.808594 178.042969 C 166.167969 178.332031 167.585938 178.542969 169.390625 178.15625 C 166.664062 176.332031 164.996094 173.855469 162.207031 172.460938 C 159.21875 170.988281 156.53125 169.089844 154.144531 166.765625 C 151.753906 164.441406 149.78125 161.804688 148.226562 158.859375 C 144.984375 152.757812 143.804688 146.117188 144.746094 139.183594 C 144.796875 138.855469 144.878906 138.53125 144.988281 138.214844 C 145.054688 138.058594 145.136719 137.914062 145.230469 137.773438 C 145.726562 137.382812 146.316406 137.371094 146.898438 137.457031 C 152.117188 138.222656 156.332031 140.734375 159.5 144.921875 C 163.335938 150 166 155.617188 166.957031 161.96875 C 167.445312 165.214844 167.597656 168.484375 166.777344 171.6875 C 166.378906 173.210938 166.792969 174.1875 167.925781 175.175781 C 171.53125 178.3125 175.652344 180.015625 180.453125 180.171875 C 183.460938 180.277344 186.445312 180.308594 189.441406 179.824219 C 192.378906 179.371094 195.050781 178.269531 197.460938 176.527344 C 205.15625 170.980469 213.566406 166.679688 221.949219 162.347656 C 226.382812 160.058594 231.136719 158.480469 235.867188 156.746094 C 235.410156 156.238281 234.886719 156.296875 234.40625 156.238281 C 228.933594 155.550781 223.449219 154.984375 218.074219 153.640625 C 215.859375 153.082031 213.585938 153.515625 211.378906 154.058594 C 210.589844 154.25 210.121094 154.847656 209.640625 155.429688 C 205.417969 160.535156 199.949219 163.222656 193.40625 163.835938 C 188.550781 164.296875 183.726562 164.359375 178.980469 162.9375 C 176.574219 162.21875 174.234375 161.382812 172.027344 159.914062 C 172.605469 158.3125 173.9375 157.496094 175.136719 156.722656 C 184.464844 150.730469 194.59375 148.953125 205.429688 150.9375 C 206.917969 151.210938 208.375 151.605469 209.699219 152.347656 C 210.683594 152.90625 211.582031 152.871094 212.792969 152.445312 C 211.1875 151.09375 209.324219 150.574219 207.632812 149.886719 C 203.109375 148.0625 198.785156 145.917969 194.765625 143.179688 C 193.769531 142.488281 192.667969 142.195312 191.457031 142.3125 C 184.566406 142.847656 178.882812 139.917969 173.804688 135.777344 C 168.789062 131.6875 165.238281 126.414062 162.980469 120.332031 C 161.992188 117.664062 161.492188 114.867188 161.199219 112.1875 C 161.78125 111.46875 162.386719 111.636719 162.953125 111.65625 C 166.429688 111.796875 169.730469 112.625 172.863281 114.128906 C 177.164062 116.1875 181.289062 118.613281 184.636719 122.109375 C 189.277344 126.953125 192.882812 132.386719 193.847656 139.214844 C 194.039062 140.5625 194.589844 141.476562 195.742188 142.25 C 201.691406 146.242188 208.195312 148.984375 214.960938 151.238281 C 222.660156 153.804688 230.628906 154.71875 238.648438 154.933594 C 242.5 155.039062 246.472656 154.914062 250.753906 153.855469 C 247.480469 152.117188 245.074219 149.753906 241.296875 149.84375 C 233.628906 150.035156 227.027344 146.855469 221.464844 141.953125 C 215.871094 137.023438 211.933594 130.804688 210.28125 123.273438 C 211.621094 122.117188 213.207031 122.050781 214.777344 122.171875 C 219.949219 122.535156 224.949219 123.660156 229.78125 125.542969 C 230.234375 124.558594 229.648438 123.601562 229.761719 122.515625 C 230.59375 121.648438 231.773438 121.273438 233.035156 121.15625 C 241.199219 120.4375 248.351562 122.921875 254.71875 127.945312 C 258.765625 131.140625 261.316406 135.433594 263.660156 139.886719 C 264.324219 141.136719 265.148438 142.320312 265.417969 143.753906 C 265.691406 145.191406 266.667969 145.769531 267.992188 146.152344 C 272.136719 147.371094 276.359375 147.597656 280.644531 147.410156 C 283.851562 147.269531 286.90625 146.417969 289.964844 145.582031 C 292.273438 144.949219 294.542969 144.183594 297.054688 143.933594 C 296.679688 144.902344 295.886719 145.003906 295.203125 145.214844 C 292.5625 146.015625 289.921875 146.820312 287.261719 147.558594 C 285.613281 148.015625 284.144531 148.738281 282.929688 149.960938 C 282.234375 150.664062 281.765625 151.476562 282.222656 152.449219 C 283.777344 155.753906 283.484375 159.328125 283.710938 162.804688 C 284.285156 171.558594 280.84375 178.59375 274.148438 184.121094 C 272.394531 185.566406 270.253906 186.375 268.457031 187.554688 C 267.28125 187.28125 267.3125 186.289062 266.996094 185.5625 C 263.902344 178.507812 264.320312 171.582031 267.761719 164.742188 C 269.082031 162.117188 270.523438 159.601562 272.476562 157.382812 C 274.03125 155.601562 275.84375 154.136719 277.914062 152.996094 C 279.355469 152.199219 280.800781 151.363281 281.453125 149.351562 C 279.664062 149.398438 278.222656 150.007812 276.773438 150.496094 C 275.824219 150.816406 274.898438 151.289062 273.921875 151.445312 C 268.8125 152.265625 265.78125 155.871094 263.078125 159.730469 C 260.871094 162.871094 259.011719 166.261719 257.113281 169.609375 C 253.464844 176.039062 251.273438 182.914062 250.945312 190.351562 C 250.875 191.941406 250.960938 193.296875 252.523438 194.191406 C 253.011719 194.460938 253.390625 194.992188 253.707031 195.476562 C 254.28125 196.359375 255.039062 196.746094 256.054688 197.109375 C 259.96875 198.507812 263.464844 200.746094 266.226562 203.816406 C 270.574219 208.65625 274.082031 214.023438 274.953125 220.710938 C 275.09375 221.796875 275.222656 222.855469 274.9375 224.148438 C 268.691406 223.996094 263.417969 221.335938 258.214844 217.78125 C 257.636719 219.636719 257.03125 221.398438 256.5625 223.191406 C 255.609375 226.847656 253.933594 230.042969 251.035156 232.542969 C 249.65625 233.726562 249.261719 234.019531 246.945312 234.816406 C 246.175781 234.570312 245.777344 233.886719 245.359375 233.277344 C 241.382812 227.515625 238.6875 221.214844 238.585938 214.15625 C 238.523438 209.773438 239.820312 205.539062 242.210938 201.785156 C 243.910156 199.101562 245.839844 196.550781 248.308594 194.5 C 249.160156 193.796875 249.433594 193.019531 249.539062 191.929688 C 250.089844 186.34375 250.84375 180.804688 252.976562 175.53125 C 253.886719 173.285156 255.097656 171.1875 256.191406 168.730469 C 254.382812 169.144531 253.066406 169.78125 252.152344 171.191406 C 250.261719 174.101562 247.921875 176.589844 245.128906 178.652344 C 244.007812 179.433594 243.183594 180.453125 242.648438 181.710938 C 239.316406 189.644531 233.371094 195.054688 225.894531 198.988281 C 222.617188 200.710938 219.292969 202.25 215.578125 202.777344 C 214.554688 202.964844 213.539062 202.921875 212.535156 202.648438 C 214.632812 196.027344 218.347656 190.347656 222.546875 184.707031 C 219.398438 183.785156 216.515625 182.746094 214.035156 180.933594 C 213.882812 179.890625 214.582031 179.328125 215.136719 178.734375 C 220.734375 172.785156 227.25 168.738281 235.554688 167.441406 C 241.246094 166.550781 246.664062 166.738281 252.125 168.332031 C 254.410156 169 255.898438 167.410156 257.375 166.160156 C 258.777344 164.96875 259.777344 163.371094 260.578125 161.699219 C 261.867188 159.011719 263.757812 156.796875 265.808594 154.679688 C 266.191406 154.285156 266.800781 154.027344 266.835938 153.324219 C 266.324219 152.804688 265.730469 153.109375 265.210938 153.234375 C 260.480469 154.394531 255.65625 154.847656 250.835938 155.421875 C 247.929688 155.769531 244.957031 155.726562 242.125 156.292969 C 238.945312 156.933594 235.871094 158.160156 232.792969 159.214844 C 224.125 162.203125 216.277344 166.886719 208.25 171.203125 C 206.265625 172.269531 204.40625 173.574219 202.519531 174.8125 C 199.585938 176.738281 198.5 178.5 197.855469 182.253906 C 203.582031 185.980469 205.214844 191.765625 205.660156 198.179688 C 205.992188 202.992188 205.609375 207.71875 204.121094 212.308594 C 203.066406 215.507812 201.589844 218.5 199.6875 221.28125 C 198.664062 222.804688 197.375 224.054688 195.816406 225.027344 C 193.421875 223.101562 191.628906 220.722656 190.433594 217.894531 C 186.703125 209.0625 186.09375 200.082031 190.320312 191.148438 C 191.296875 189.085938 192.726562 187.285156 194.230469 185.632812 C 196.019531 183.667969 196.472656 181.289062 197.355469 178.523438 C 195.078125 179.765625 193.511719 181.277344 191.832031 182.5625 C 187.921875 185.585938 184.304688 188.945312 180.6875 192.308594 C 180.140625 192.8125 179.949219 193.363281 179.773438 194.019531 C 177.808594 201.398438 172.914062 206.332031 166.351562 209.746094 C 164.25 210.839844 162.445312 212.300781 160.941406 214.128906 C 160.035156 215.222656 159.296875 216.472656 158.308594 217.476562 C 156.824219 218.960938 156.671875 220.480469 157.789062 222.175781 C 160.953125 226.996094 160.386719 232.238281 159.476562 237.492188 C 158.207031 244.792969 154.234375 250.417969 148.511719 254.929688 C 147.472656 255.746094 146.585938 256.769531 145.082031 257.574219 Z M 247.308594 233.644531 C 250.300781 232.105469 252.417969 229.855469 253.714844 226.996094 C 255.414062 223.253906 256.582031 219.34375 256.820312 215.171875 C 257.070312 210.785156 256.871094 206.46875 255.566406 202.253906 C 254.804688 199.789062 253.730469 197.480469 251.46875 195.371094 C 250.542969 200.488281 249.191406 205.121094 249.265625 210 C 249.289062 211.753906 249.242188 213.515625 249.195312 215.273438 C 249.179688 215.945312 249.019531 216.554688 247.929688 216.652344 C 248.148438 212.941406 247.761719 209.375 248.148438 205.816406 C 248.539062 202.296875 249.609375 198.875 249.824219 195.117188 C 237.257812 205.246094 236.835938 220.410156 247.308594 233.644531 Z M 263.707031 144.972656 C 264.273438 144.257812 263.945312 143.617188 263.703125 143.101562 C 262.855469 141.285156 261.992188 139.472656 261.019531 137.726562 C 259.339844 134.722656 257.347656 131.96875 254.753906 129.648438 C 250.378906 125.742188 245.265625 123.441406 239.542969 122.507812 C 236.847656 122.066406 234.097656 121.976562 231.488281 123.039062 C 233.238281 137.410156 250.609375 149.671875 262.816406 146.03125 C 261.003906 143.972656 258.886719 142.386719 256.867188 140.683594 C 253.277344 137.667969 249.167969 135.375 245.476562 132.503906 C 245.078125 132.191406 244.40625 132.011719 244.609375 130.847656 C 251.550781 134.773438 257.917969 139.484375 263.707031 144.972656 Z M 145.75 172.0625 C 141.625 156.308594 122.402344 149.027344 113.742188 151.910156 C 115.78125 165.332031 132.339844 177.050781 144.660156 172.839844 C 141.902344 169.773438 137.886719 168.390625 135.066406 165.457031 C 135.449219 165.167969 135.691406 165.234375 135.898438 165.351562 C 139.246094 167.222656 142.261719 169.5625 145.75 172.0625 Z M 196.6875 185.035156 C 184.605469 195.554688 188.035156 217.867188 196.035156 223.074219 C 197.828125 221.761719 199.820312 218.894531 201.261719 215.882812 C 204.058594 210.050781 204.660156 203.855469 204.234375 197.542969 C 203.980469 193.773438 203.121094 190.089844 200.878906 186.910156 C 200.292969 186.078125 199.765625 185.097656 198.464844 184.839844 C 198.148438 186.710938 198.089844 188.59375 198.285156 190.480469 C 198.8125 194.972656 198.777344 199.480469 198.476562 203.980469 C 198.285156 206.972656 198 209.980469 197.089844 212.875 C 196.882812 213.519531 196.648438 214.222656 195.578125 213.613281 C 198.265625 204.246094 197.117188 194.695312 196.6875 185.035156 Z M 176.964844 125.660156 C 177.066406 125.519531 177.171875 125.378906 177.273438 125.234375 C 178.777344 125.90625 180.042969 126.945312 181.261719 128.03125 C 184.890625 131.265625 188.230469 134.761719 190.984375 138.789062 C 191.242188 139.164062 191.511719 139.683594 192.148438 139.363281 C 192.8125 128.4375 173.976562 111.566406 162.964844 113.242188 C 162.941406 113.492188 162.941406 113.738281 162.964844 113.988281 C 165.425781 126.332031 172 135.378906 183.980469 139.984375 C 186.171875 140.824219 188.472656 141.730469 191.210938 140.90625 C 188.921875 138.113281 187.066406 135.234375 184.621094 132.839844 C 182.113281 130.390625 179.515625 128.046875 176.964844 125.660156 Z M 211.898438 123.757812 C 215.761719 139.96875 231.605469 150.070312 243.578125 148.425781 C 237.324219 140.914062 229.726562 135.386719 220.742188 131.445312 C 221.660156 130.722656 222.226562 131.15625 222.8125 131.378906 C 230.027344 134.207031 236.042969 138.777344 241.441406 144.238281 C 242.066406 144.867188 242.558594 145.640625 243.679688 145.925781 C 243.214844 144.40625 243.128906 142.828125 241.898438 141.980469 C 237.496094 138.953125 234.417969 134.84375 232.167969 130.113281 C 231.097656 127.863281 229.351562 126.710938 227.199219 125.890625 C 223.582031 124.503906 219.8125 123.769531 215.980469 123.375 C 214.675781 123.242188 213.328125 123.097656 211.898438 123.757812 Z M 142.265625 211.226562 C 142.507812 211.46875 142.609375 211.636719 142.738281 211.683594 C 143.136719 211.816406 143.539062 211.914062 143.949219 211.984375 C 151.703125 213.226562 159.109375 212.152344 166.085938 208.515625 C 170.730469 206.105469 174.449219 202.722656 176.835938 197.988281 C 177.082031 197.5 177.402344 197.03125 177.191406 196.371094 C 169.882812 201.042969 159.539062 205.84375 156.78125 205.859375 C 157.335938 204.988281 158.304688 204.871094 159.136719 204.535156 C 164.179688 202.492188 169.082031 200.164062 173.671875 197.222656 C 175.117188 196.292969 176.59375 195.347656 177.414062 193.695312 C 176.644531 192.9375 175.78125 193.160156 174.976562 193.167969 C 172.878906 193.191406 170.832031 193.589844 168.785156 193.980469 C 159.644531 195.699219 151.742188 199.703125 145.34375 206.546875 C 144.019531 207.910156 142.996094 209.472656 142.265625 211.226562 Z M 152.25 145.652344 C 153.101562 145.402344 153.359375 145.800781 153.570312 146.121094 C 156.589844 150.730469 159.644531 155.324219 161.472656 160.578125 C 162.546875 163.660156 163.433594 166.808594 164.773438 169.796875 C 164.914062 170.113281 164.84375 170.703125 165.539062 170.484375 C 166.078125 169.5 166.03125 168.414062 166.066406 167.332031 C 166.152344 164.363281 165.625 161.476562 164.851562 158.652344 C 163.15625 152.496094 160.292969 146.984375 155.59375 142.546875 C 153.011719 140.109375 149.832031 139.09375 146.25 138.476562 C 145.179688 146.445312 146.480469 153.769531 150.648438 160.328125 C 154.265625 166.023438 160.671875 171.023438 164.058594 171.300781 C 161.914062 166.9375 161.011719 162.304688 159.09375 158.046875 C 157.171875 153.792969 154.59375 149.800781 152.25 145.652344 Z M 250.683594 169.539062 C 238.535156 164.988281 220.351562 171.6875 215.902344 180.585938 C 226.503906 187.992188 246.34375 180.390625 250.125 171.355469 C 246.78125 172.445312 243.816406 174.214844 240.492188 175.050781 C 237.171875 175.890625 234.023438 177.363281 230.472656 177.023438 C 237.199219 174.769531 244.203125 173.332031 250.683594 169.535156 Z M 272.355469 174.230469 C 273.359375 172 274.195312 169.757812 275.011719 167.503906 C 275.867188 165.144531 276.710938 162.78125 277.511719 160.402344 C 278.257812 158.191406 279.683594 156.183594 279.792969 153.617188 C 268.464844 158.589844 262.410156 176.210938 268.589844 185.765625 C 268.824219 185.746094 269.105469 185.792969 269.300781 185.683594 C 277.359375 181.320312 281.90625 174.660156 282.28125 165.414062 C 282.398438 162.5 282.117188 159.570312 281.980469 156.648438 C 281.953125 156.113281 281.960938 155.480469 281.15625 155.046875 C 279.914062 157.242188 279.261719 159.648438 278.359375 161.9375 C 276.976562 165.433594 275.671875 168.964844 274.257812 172.449219 C 273.949219 173.21875 273.753906 174.246094 272.355469 174.230469 Z M 150.964844 240.707031 C 150.425781 237.929688 152.238281 236.390625 152.597656 234.457031 C 152.984375 232.417969 153.929688 230.515625 153.992188 228.375 C 154.054688 226.351562 154.722656 224.351562 154.359375 222.195312 C 145.246094 228.554688 140.855469 246.015625 145.832031 255.320312 C 146.117188 255.203125 146.488281 255.164062 146.714844 254.964844 C 147.777344 254.023438 148.796875 253.03125 149.851562 252.078125 C 156.648438 245.878906 159.15625 238.035156 158.785156 229.042969 C 158.683594 226.621094 157.523438 224.675781 156.113281 222.1875 C 155.621094 225.769531 155.398438 228.828125 154.738281 231.792969 C 154.082031 234.761719 152.90625 237.601562 150.964844 240.707031 Z M 126.578125 245.761719 C 126.324219 244.957031 126.617188 244.679688 126.925781 244.386719 C 131.390625 240.167969 136.441406 236.765625 141.746094 233.71875 C 143.910156 232.476562 146.0625 231.34375 146.945312 228.65625 C 147.367188 227.367188 148.53125 226.320312 149.347656 225.15625 C 149.652344 224.714844 150.3125 224.417969 150 223.699219 C 142.011719 224.214844 119.847656 241.582031 118.324219 250.832031 C 119.132812 251.277344 119.964844 250.945312 120.765625 250.847656 C 127.734375 249.960938 133.832031 247.09375 139.539062 243.039062 C 142.738281 240.765625 143.664062 237.675781 144.34375 233.9375 C 140.707031 235.171875 138.128906 237.632812 135.136719 239.378906 C 132.074219 241.167969 129.808594 244.046875 126.578125 245.761719 Z M 174.203125 159.445312 C 175.882812 160.8125 177.933594 161.257812 179.894531 161.773438 C 185.574219 163.265625 191.265625 162.980469 196.984375 161.804688 C 201.058594 160.960938 204.390625 158.890625 207.347656 156.09375 C 207.707031 155.753906 208.347656 155.414062 207.9375 154.539062 C 204.113281 155.753906 200.109375 156.164062 196.164062 156.832031 C 192.300781 157.488281 188.429688 158.378906 184.113281 158.359375 C 184.753906 157.328125 185.421875 157.324219 186.054688 157.238281 C 188.121094 156.957031 190.1875 156.679688 192.253906 156.375 C 196.21875 155.789062 200.097656 154.722656 204.089844 154.242188 C 205.253906 154.101562 206.535156 153.9375 207.511719 152.953125 C 197.234375 149.257812 181.460938 152.378906 174.203125 159.445312 Z M 139.652344 189.769531 C 144.472656 186.460938 150.15625 184.835938 155.265625 181.675781 C 147.441406 178.734375 132.550781 184.121094 126.6875 194.496094 C 128.378906 195.011719 129.945312 195.652344 131.765625 195.683594 C 137.226562 195.769531 142.339844 194.421875 147.230469 192.144531 C 149.738281 190.976562 152.03125 189.417969 153.886719 187.328125 C 155.003906 186.070312 156.175781 184.800781 156.425781 182.761719 C 153.464844 184.089844 150.734375 185.296875 148.011719 186.539062 C 145.289062 187.78125 142.667969 189.25 139.65625 189.765625 Z M 117.367188 163.394531 C 116.574219 162.179688 115.863281 161.335938 115.421875 160.367188 C 114.738281 158.867188 113.585938 158.410156 112.054688 158.265625 C 109.234375 158.003906 106.585938 158.824219 103.894531 159.386719 C 100.984375 159.996094 98.414062 161.363281 96.058594 163.15625 C 95.265625 163.761719 94.542969 164.410156 94.277344 165.378906 C 101.347656 171.957031 117.09375 172.894531 123.425781 169.453125 C 122.109375 168.464844 120.878906 167.433594 119.996094 166.140625 C 119.070312 164.78125 117.925781 164.679688 116.515625 164.925781 C 112.3125 165.660156 108.054688 165.839844 103.804688 166.117188 C 103.082031 166.160156 102.324219 166.34375 101.269531 165.472656 C 104.191406 165.210938 106.734375 165.042969 109.261719 164.738281 C 111.867188 164.414062 114.558594 164.453125 117.367188 163.394531 Z M 231.96875 184.578125 C 229.773438 184.625 228.019531 184.765625 226.28125 184.667969 C 224.671875 184.578125 223.617188 185.273438 222.691406 186.472656 C 219.441406 190.660156 216.777344 195.195312 214.703125 200.074219 C 214.511719 200.523438 214.234375 200.996094 214.707031 201.453125 C 225.242188 200.714844 239.554688 189.738281 241.324219 181.144531 C 239.082031 181.984375 236.902344 182.785156 234.734375 183.628906 C 234.425781 183.765625 234.183594 183.984375 234.007812 184.277344 C 232.863281 186.152344 231.203125 187.597656 229.78125 189.222656 C 227.828125 191.421875 225.671875 193.402344 223.3125 195.15625 C 222.710938 195.617188 222.113281 196.21875 220.753906 195.644531 C 225.207031 192.5625 228.5 188.835938 231.96875 184.578125 Z M 258.027344 206.613281 C 258.359375 209.097656 258.429688 211.589844 258.234375 214.085938 C 258.140625 215.496094 258.804688 216.480469 259.828125 217.296875 C 263.355469 220.125 267.398438 221.820312 271.78125 222.757812 C 272.417969 222.886719 273.085938 223.160156 273.707031 222.667969 C 273.722656 212.652344 263.699219 200.699219 255.90625 198.574219 C 256.535156 200.527344 257.148438 202.40625 257.742188 204.289062 C 257.878906 204.71875 258.175781 204.929688 258.535156 205.167969 C 261.480469 207.203125 263.375 210.171875 265.382812 213.035156 C 265.644531 213.398438 266.101562 213.839844 265.183594 214.484375 C 262.699219 212.21875 261.53125 208.632812 258.027344 206.613281 Z M 244.921875 144.019531 C 245.339844 148.851562 245.339844 148.851562 248.78125 151.210938 C 248.921875 151.304688 249.042969 151.417969 249.1875 151.503906 C 251.464844 152.820312 253.824219 153.722656 256.550781 153.390625 C 262.097656 152.71875 267.554688 151.53125 273.011719 150.367188 C 274.101562 150.136719 275.132812 149.636719 276.480469 149.160156 C 275.929688 148.960938 275.71875 148.839844 275.492188 148.816406 C 272.417969 148.488281 269.347656 148.128906 266.414062 147.066406 C 265.589844 146.796875 264.765625 146.800781 263.941406 147.082031 C 259.273438 148.464844 254.707031 147.9375 250.167969 146.429688 C 248.429688 145.851562 246.871094 144.894531 244.921875 144.019531 Z M 244.921875 144.019531 " fill-opacity="1" fill-rule="nonzero"/></g></g></g></svg>