<svg xmlns="http://www.w3.org/2000/svg" xmlns:xlink="http://www.w3.org/1999/xlink" width="500" zoomAndPan="magnify" viewBox="0 0 375 374.999991" height="500" preserveAspectRatio="xMidYMid meet" version="1.0"><defs><clipPath id="ac225d7bac"><path d="M 128 4.390625 L 244 4.390625 L 244 129 L 128 129 Z M 128 4.390625 " clip-rule="nonzero"/></clipPath><clipPath id="eb84e6477f"><path d="M 224 249 L 280 249 L 280 370.390625 L 224 370.390625 Z M 224 249 " clip-rule="nonzero"/></clipPath><clipPath id="7653f7e717"><path d="M 114 317 L 125 317 L 125 370.390625 L 114 370.390625 Z M 114 317 " clip-rule="nonzero"/></clipPath></defs><path fill="#231f20" d="M 207.09375 31.207031 C 211.445312 28.617188 216.097656 26.519531 220.917969 24.847656 C 225.738281 23.191406 230.761719 22.015625 235.917969 21.539062 C 241.066406 21.113281 246.382812 21.441406 251.472656 23.015625 C 256.558594 24.570312 261.273438 27.5 265 31.355469 C 266.867188 33.277344 268.511719 35.40625 269.925781 37.660156 C 271.320312 39.921875 272.5 42.300781 273.511719 44.730469 C 275.511719 49.605469 276.835938 54.683594 277.734375 59.789062 C 277.851562 60.425781 277.941406 61.070312 278.039062 61.710938 L 278.175781 62.667969 L 278.242188 63.152344 L 278.273438 63.390625 L 278.289062 63.511719 L 278.296875 63.570312 L 278.316406 63.832031 C 278.355469 64.386719 278.363281 65.308594 278.3125 66.011719 C 278.253906 66.761719 278.140625 67.515625 277.972656 68.261719 C 277.292969 71.273438 275.484375 73.945312 273.382812 75.875 C 271.269531 77.832031 268.914062 79.261719 266.539062 80.476562 C 264.15625 81.683594 261.746094 82.6875 259.308594 83.5625 C 254.441406 85.320312 249.554688 86.734375 244.691406 88.144531 C 239.828125 89.535156 234.996094 90.949219 230.183594 92.371094 C 220.5625 95.230469 211.128906 98.566406 202.058594 102.71875 C 193.019531 106.910156 184.359375 111.980469 176.542969 118.21875 C 168.6875 124.40625 161.742188 131.777344 155.769531 139.945312 C 160.828125 131.171875 167.378906 123.207031 174.976562 116.359375 C 182.59375 109.53125 191.226562 103.832031 200.367188 99.222656 C 209.488281 94.542969 219.117188 91.003906 228.777344 87.855469 C 238.433594 84.703125 248.300781 82.242188 257.585938 78.855469 C 259.894531 77.996094 262.167969 77.097656 264.300781 76.027344 C 266.429688 74.964844 268.429688 73.738281 270.039062 72.265625 C 271.648438 70.792969 272.777344 69.074219 273.242188 67.136719 C 273.355469 66.652344 273.433594 66.152344 273.480469 65.640625 C 273.511719 65.085938 273.527344 64.742188 273.492188 64.035156 L 273.273438 62.398438 L 273 60.566406 C 272.265625 55.699219 271.132812 50.910156 269.394531 46.378906 C 267.644531 41.867188 265.285156 37.613281 262.113281 34.070312 C 258.949219 30.523438 254.917969 27.8125 250.410156 26.179688 C 245.90625 24.511719 240.976562 23.90625 236.058594 24.042969 C 231.121094 24.136719 226.171875 24.96875 221.324219 26.207031 C 218.894531 26.824219 216.492188 27.558594 214.117188 28.398438 C 211.738281 29.222656 209.382812 30.132812 207.09375 31.207031 " fill-opacity="1" fill-rule="nonzero"/><g clip-path="url(#ac225d7bac)"><path fill="#231f20" d="M 243.867188 19.914062 C 243.800781 18.859375 243.375 17.875 242.785156 17.039062 C 242.195312 16.195312 241.453125 15.472656 240.652344 14.832031 C 239.050781 13.546875 237.222656 12.566406 235.332031 11.761719 C 231.539062 10.160156 227.5 9.171875 223.421875 8.625 C 215.265625 7.480469 206.941406 7.972656 198.972656 9.734375 C 182.976562 13.265625 168.640625 22.554688 158.421875 35.261719 C 153.214844 41.550781 148.953125 48.625 145.460938 56.078125 C 141.902344 63.511719 139.222656 71.375 136.976562 79.375 C 132.585938 95.417969 130.390625 112.089844 129.027344 128.871094 C 128.304688 112.046875 129.402344 95.023438 133.171875 78.414062 C 135.023438 70.105469 137.695312 61.949219 141.136719 54.089844 C 144.644531 46.265625 149.082031 38.796875 154.542969 32.074219 C 160.054688 25.414062 166.597656 19.527344 174.03125 15.019531 C 181.46875 10.558594 189.6875 7.371094 198.203125 5.902344 C 206.699219 4.378906 215.453125 4.433594 223.855469 6.203125 C 228.035156 7.140625 232.15625 8.457031 235.9375 10.511719 C 237.816406 11.550781 239.625 12.753906 241.15625 14.273438 C 241.914062 15.042969 242.597656 15.894531 243.109375 16.84375 C 243.613281 17.789062 243.933594 18.859375 243.867188 19.914062 " fill-opacity="1" fill-rule="nonzero"/></g><path fill="#231f20" d="M 131.753906 93.914062 C 128.519531 98.40625 125.949219 103.265625 123.644531 108.222656 C 121.320312 113.167969 119.359375 118.265625 117.589844 123.417969 C 114.125 133.753906 111.566406 144.363281 109.703125 155.109375 C 107.835938 165.859375 106.65625 176.742188 105.875 187.679688 C 105.128906 198.625 104.851562 209.628906 104.59375 220.710938 C 102.761719 209.773438 101.9375 198.667969 101.957031 187.546875 C 101.949219 176.417969 102.847656 165.261719 104.757812 154.246094 C 106.6875 143.25 109.617188 132.371094 113.941406 122.035156 C 116.074219 116.863281 118.589844 111.84375 121.480469 107.058594 C 122.960938 104.6875 124.5 102.351562 126.199219 100.136719 C 127.898438 97.929688 129.691406 95.773438 131.753906 93.914062 " fill-opacity="1" fill-rule="nonzero"/><path fill="#231f20" d="M 263.34375 76.832031 C 264.160156 77.65625 264.707031 78.726562 265.125 79.8125 C 265.546875 80.910156 265.792969 82.066406 265.941406 83.234375 C 266.234375 85.570312 266.101562 87.949219 265.722656 90.265625 C 264.984375 94.917969 263.335938 99.355469 261.410156 103.609375 C 260.441406 105.738281 259.355469 107.808594 258.21875 109.847656 C 257.113281 111.714844 256.445312 113.824219 255.949219 115.972656 C 254.960938 120.277344 254.96875 124.789062 255.800781 129.136719 L 255.804688 129.152344 L 255.820312 129.253906 C 255.84375 129.621094 255.820312 129.753906 255.785156 129.996094 C 255.746094 130.214844 255.683594 130.4375 255.589844 130.65625 C 255.398438 131.097656 255.054688 131.523438 254.648438 131.800781 C 253.808594 132.351562 253.027344 132.363281 252.425781 132.335938 C 251.210938 132.242188 250.296875 131.882812 249.394531 131.519531 L 249.03125 131.308594 C 249.148438 131.394531 249.042969 131.320312 249.03125 131.320312 L 248.902344 131.28125 C 248.808594 131.253906 248.703125 131.246094 248.589844 131.246094 C 248.359375 131.253906 248.082031 131.332031 247.785156 131.488281 L 247.976562 131.371094 C 247.785156 131.515625 247.445312 131.832031 247.226562 132.101562 C 246.988281 132.390625 246.78125 132.6875 246.625 133 C 246.304688 133.617188 246.1875 134.238281 246.261719 134.863281 L 246.265625 134.90625 C 246.292969 135.152344 246.257812 135.390625 246.171875 135.601562 C 246.046875 135.902344 245.996094 135.96875 245.902344 136.121094 C 245.816406 136.25 245.726562 136.367188 245.628906 136.480469 C 245.433594 136.707031 245.21875 136.902344 244.984375 137.0625 C 244.515625 137.394531 243.992188 137.589844 243.496094 137.683594 C 242.5 137.867188 241.640625 137.722656 240.878906 137.523438 C 239.367188 137.085938 238.152344 136.375 236.996094 135.632812 L 239.011719 133.253906 L 241.257812 135.734375 L 241.820312 136.355469 L 242 136.5625 C 242.117188 136.695312 242.195312 136.808594 242.273438 136.9375 C 242.421875 137.1875 242.546875 137.480469 242.613281 137.832031 C 242.777344 138.539062 242.480469 139.445312 242.0625 139.886719 C 241.660156 140.363281 241.253906 140.589844 240.894531 140.773438 C 240.691406 140.882812 240.476562 140.9375 240.261719 140.941406 L 240.21875 140.941406 C 240.105469 140.945312 239.789062 140.980469 239.570312 141.027344 C 239.328125 141.078125 239.089844 141.144531 238.859375 141.230469 C 238.398438 141.398438 237.988281 141.632812 237.632812 141.921875 C 237.277344 142.207031 236.992188 142.5625 236.757812 142.96875 C 236.640625 143.167969 236.539062 143.382812 236.453125 143.613281 L 236.367188 143.859375 L 236.257812 144.125 L 236.042969 144.613281 C 234.855469 147.121094 233.261719 149.40625 231.152344 151.285156 C 229.066406 153.15625 226.324219 154.488281 223.457031 154.695312 C 220.59375 154.9375 217.816406 154.207031 215.367188 153.09375 C 214.136719 152.535156 212.96875 151.871094 211.859375 151.132812 C 210.808594 150.472656 209.660156 149.707031 208.628906 148.933594 C 206.519531 147.378906 204.53125 145.683594 202.667969 143.863281 C 198.933594 140.242188 195.667969 136.136719 193.117188 131.652344 C 196.152344 135.820312 199.691406 139.566406 203.578125 142.855469 C 205.53125 144.492188 207.5625 146.03125 209.679688 147.421875 C 210.753906 148.132812 211.78125 148.738281 212.949219 149.378906 C 214.023438 150.007812 215.128906 150.5625 216.257812 151.027344 C 218.511719 151.949219 220.914062 152.4375 223.195312 152.144531 C 225.472656 151.859375 227.574219 150.792969 229.285156 149.203125 C 230.992188 147.617188 232.359375 145.558594 233.316406 143.386719 L 233.480469 142.984375 L 233.550781 142.808594 L 233.621094 142.597656 C 233.75 142.21875 233.910156 141.847656 234.105469 141.484375 C 234.503906 140.765625 235.039062 140.097656 235.679688 139.574219 C 236.316406 139.039062 237.039062 138.628906 237.785156 138.351562 C 238.160156 138.210938 238.539062 138.097656 238.925781 138.011719 C 239.335938 137.929688 239.660156 137.867188 240.1875 137.847656 L 239.515625 138.011719 C 239.648438 137.945312 239.726562 137.867188 239.679688 137.910156 C 239.628906 137.929688 239.515625 138.25 239.566406 138.40625 L 239.605469 138.527344 L 239.628906 138.5625 L 239.65625 138.59375 L 239.636719 138.570312 L 239.601562 138.53125 L 239.53125 138.457031 L 238.960938 137.839844 L 236.691406 135.378906 C 236.105469 134.738281 236.144531 133.746094 236.78125 133.15625 C 237.316406 132.660156 238.105469 132.609375 238.691406 132.988281 L 238.710938 133 C 239.707031 133.632812 240.753906 134.195312 241.714844 134.460938 C 242.1875 134.59375 242.632812 134.632812 242.898438 134.578125 C 243.039062 134.554688 243.125 134.515625 243.183594 134.476562 L 243.253906 134.421875 L 243.269531 134.394531 C 243.265625 134.417969 243.292969 134.339844 243.230469 134.496094 L 243.140625 135.234375 C 242.984375 133.953125 243.285156 132.621094 243.855469 131.554688 C 244.140625 131.011719 244.484375 130.527344 244.863281 130.082031 C 245.265625 129.628906 245.613281 129.269531 246.183594 128.84375 L 246.347656 128.742188 L 246.375 128.726562 C 246.984375 128.417969 247.707031 128.183594 248.5 128.160156 C 248.890625 128.152344 249.300781 128.195312 249.695312 128.300781 C 249.894531 128.355469 250.089844 128.425781 250.289062 128.511719 C 250.503906 128.617188 250.625 128.660156 250.949219 128.90625 L 250.589844 128.6875 C 251.308594 128.996094 252.074219 129.25 252.613281 129.285156 C 252.882812 129.316406 253.035156 129.234375 252.933594 129.289062 L 252.820312 129.4375 L 252.816406 129.464844 C 252.820312 129.492188 252.8125 129.402344 252.824219 129.546875 L 252.839844 129.664062 C 252.050781 124.929688 252.15625 120.011719 253.355469 115.339844 C 253.984375 113.023438 254.828125 110.703125 256.15625 108.636719 C 257.359375 106.695312 258.46875 104.703125 259.539062 102.691406 C 261.648438 98.65625 263.457031 94.445312 264.511719 90.027344 C 265.019531 87.820312 265.339844 85.554688 265.261719 83.289062 C 265.21875 82.152344 265.070312 81.023438 264.78125 79.921875 C 264.488281 78.828125 264.070312 77.734375 263.34375 76.832031 " fill-opacity="1" fill-rule="nonzero"/><path fill="#231f20" d="M 186.449219 108.9375 C 186.113281 113.550781 185.394531 118.152344 184.246094 122.660156 C 183.074219 127.160156 181.46875 131.566406 179.386719 135.753906 C 178.34375 137.851562 177.175781 139.886719 175.890625 141.847656 L 175.402344 142.582031 L 175.152344 142.941406 L 175.03125 143.128906 L 174.96875 143.21875 L 174.890625 143.316406 L 174.859375 143.359375 C 174.484375 143.808594 174.140625 144.25 173.738281 144.703125 C 172.972656 145.613281 172.175781 146.460938 171.363281 147.320312 C 168.082031 150.691406 164.390625 153.660156 160.488281 156.261719 C 156.582031 158.859375 152.496094 161.132812 148.394531 163.300781 L 142.234375 166.511719 C 140.230469 167.511719 138.273438 168.6875 136.40625 169.917969 C 128.894531 174.835938 122.488281 181.476562 118.457031 189.378906 C 116.433594 193.316406 115.019531 197.546875 114.210938 201.882812 C 114.015625 202.96875 113.855469 204.0625 113.734375 205.15625 L 113.691406 205.570312 L 113.675781 205.675781 C 113.667969 205.789062 113.6875 205.574219 113.679688 205.617188 L 113.679688 205.667969 L 113.667969 205.886719 L 113.625 206.753906 L 113.527344 208.511719 C 113.375 210.878906 113.15625 213.214844 112.875 215.550781 C 111.742188 224.894531 109.664062 234.035156 107.398438 243.023438 L 103.984375 256.460938 C 103.425781 258.695312 102.882812 260.925781 102.367188 263.167969 L 101.59375 266.53125 C 101.363281 267.582031 101.152344 268.6875 100.988281 269.773438 C 99.632812 278.523438 100.515625 287.566406 102.839844 296.210938 L 102.476562 295.433594 C 106.085938 300.582031 110.609375 305.09375 115.648438 308.992188 C 120.683594 312.890625 126.230469 316.179688 131.984375 319.078125 C 137.742188 321.972656 143.753906 324.492188 149.839844 326.691406 C 155.996094 328.894531 162.1875 330.976562 168.433594 332.839844 C 180.898438 336.613281 193.65625 339.519531 206.589844 340.429688 C 219.496094 341.390625 232.640625 340.09375 244.851562 335.628906 L 244.933594 335.597656 L 244.992188 335.582031 C 246.480469 335.257812 248.023438 334.542969 249.484375 333.75 C 250.949219 332.949219 252.367188 332.03125 253.742188 331.046875 C 256.488281 329.074219 259.054688 326.824219 261.378906 324.34375 C 263.699219 321.867188 265.773438 319.140625 267.414062 316.152344 C 269.03125 313.167969 270.1875 309.855469 270.289062 306.402344 C 270.382812 309.855469 269.410156 313.285156 267.9375 316.417969 C 266.453125 319.5625 264.453125 322.4375 262.203125 325.082031 C 259.949219 327.730469 257.433594 330.152344 254.695312 332.316406 C 253.320312 333.394531 251.886719 334.402344 250.375 335.3125 C 248.847656 336.207031 247.28125 337.042969 245.429688 337.535156 L 245.570312 337.492188 C 233.25 342.621094 219.679688 344.324219 206.40625 343.753906 C 193.085938 343.179688 179.992188 340.457031 167.253906 336.917969 C 160.882812 335.113281 154.597656 333.085938 148.351562 330.949219 C 142.054688 328.765625 135.894531 326.285156 129.867188 323.359375 C 123.863281 320.421875 118.046875 316.980469 112.664062 312.863281 C 107.296875 308.75 102.382812 303.910156 98.410156 298.300781 L 98.164062 297.949219 L 98.046875 297.523438 C 95.496094 288.355469 94.566406 278.566406 96.101562 269.007812 C 96.289062 267.808594 96.511719 266.640625 96.78125 265.433594 L 97.578125 262.042969 C 98.113281 259.777344 98.675781 257.519531 99.242188 255.269531 L 102.726562 241.832031 C 105.027344 232.90625 107.222656 224.003906 108.425781 214.980469 C 108.726562 212.734375 108.96875 210.464844 109.140625 208.21875 L 109.265625 206.515625 L 109.316406 205.652344 L 109.332031 205.4375 L 109.347656 205.21875 L 109.363281 205.101562 L 109.414062 204.652344 C 109.5625 203.453125 109.753906 202.257812 109.988281 201.074219 C 110.917969 196.328125 112.589844 191.730469 114.890625 187.496094 C 119.480469 178.984375 126.519531 172.042969 134.566406 167.039062 C 136.59375 165.792969 138.644531 164.648438 140.808594 163.644531 L 147.039062 160.640625 C 151.171875 158.617188 155.234375 156.511719 159.105469 154.109375 C 162.976562 151.71875 166.648438 149.011719 169.9375 145.878906 C 170.75 145.089844 171.566406 144.285156 172.324219 143.457031 C 172.707031 143.058594 173.089844 142.601562 173.472656 142.175781 L 173.945312 141.546875 L 174.445312 140.859375 C 175.769531 139.003906 176.980469 137.070312 178.097656 135.074219 C 180.328125 131.085938 182.113281 126.832031 183.480469 122.441406 C 184.871094 118.054688 185.851562 113.523438 186.449219 108.9375 " fill-opacity="1" fill-rule="nonzero"/><path fill="#231f20" d="M 156.695312 187.371094 C 159.339844 188.363281 161.488281 190.488281 163.113281 192.855469 C 164.71875 195.269531 165.832031 198.007812 166.496094 200.824219 C 167.191406 203.644531 167.492188 206.535156 167.515625 209.414062 C 167.554688 212.289062 167.371094 215.160156 166.957031 217.984375 C 166.171875 223.648438 164.761719 229.171875 162.9375 234.523438 C 161.132812 239.878906 158.953125 245.078125 156.527344 250.140625 L 156.617188 249.910156 C 155.511719 253.035156 154.335938 256.09375 153.140625 259.125 C 151.910156 262.144531 150.730469 265.164062 149.558594 268.1875 C 148.382812 271.203125 147.289062 274.246094 146.261719 277.320312 C 145.265625 280.40625 144.34375 283.519531 143.582031 286.714844 C 143.628906 283.429688 143.988281 280.140625 144.558594 276.898438 C 145.109375 273.644531 145.890625 270.441406 146.734375 267.257812 C 147.585938 264.082031 148.589844 260.960938 149.558594 257.839844 C 150.558594 254.734375 151.605469 251.660156 152.515625 248.582031 L 152.535156 248.511719 L 152.601562 248.351562 C 154.785156 243.300781 156.832031 238.207031 158.625 233.042969 C 160.390625 227.875 161.964844 222.648438 162.992188 217.339844 C 163.480469 214.675781 163.894531 212.007812 164.070312 209.324219 C 164.238281 206.652344 164.234375 203.960938 163.90625 201.308594 C 163.558594 198.667969 162.933594 196.046875 161.777344 193.625 C 160.632812 191.222656 159.023438 188.921875 156.695312 187.371094 " fill-opacity="1" fill-rule="nonzero"/><path fill="#231f20" d="M 202.535156 143.324219 C 200.164062 148.582031 198.183594 153.992188 196.996094 159.507812 C 196.394531 162.25 195.992188 165.027344 195.972656 167.761719 C 195.960938 170.484375 196.261719 173.175781 197.183594 175.566406 C 198.089844 177.957031 199.59375 179.984375 201.550781 181.523438 C 202.542969 182.320312 203.574219 182.859375 204.898438 183.601562 L 208.675781 185.734375 C 213.691406 188.621094 218.660156 191.710938 223.378906 195.238281 C 228.074219 198.785156 232.585938 202.761719 236.234375 207.664062 C 238.03125 210.117188 239.621094 212.808594 240.6875 215.761719 C 241.769531 218.699219 242.304688 221.910156 242.09375 225.0625 C 241.90625 228.21875 241.050781 231.28125 239.710938 234.023438 C 238.363281 236.769531 236.636719 239.246094 234.699219 241.480469 C 230.769531 245.917969 226.148438 249.53125 221.238281 252.558594 C 225.476562 248.644531 229.566406 244.585938 232.757812 239.960938 C 235.976562 235.40625 238.230469 230.179688 238.179688 224.953125 C 238.15625 222.347656 237.5625 219.789062 236.558594 217.371094 C 235.535156 214.957031 234.121094 212.671875 232.445312 210.550781 C 229.082031 206.300781 224.847656 202.621094 220.367188 199.257812 C 215.882812 195.882812 211.097656 192.824219 206.242188 189.824219 L 202.582031 187.582031 C 201.417969 186.890625 199.941406 186 198.730469 184.925781 C 196.238281 182.808594 194.390625 179.890625 193.488281 176.820312 C 192.5625 173.746094 192.394531 170.585938 192.703125 167.578125 C 193.015625 164.558594 193.710938 161.65625 194.632812 158.855469 C 196.550781 153.28125 199.195312 148.050781 202.535156 143.324219 " fill-opacity="1" fill-rule="nonzero"/><path fill="#231f20" d="M 131.753906 281.804688 C 134.515625 281.234375 137.453125 281.582031 140.191406 282.390625 C 142.957031 283.171875 145.542969 284.425781 148.050781 285.742188 L 147.867188 285.652344 C 158.402344 289.003906 168.324219 294.066406 177.832031 299.488281 L 184.929688 303.609375 L 188.449219 305.695312 L 190.207031 306.734375 L 191.890625 307.609375 C 196.542969 309.972656 201.535156 311.777344 206.640625 312.964844 C 216.871094 315.355469 227.6875 315.34375 237.980469 312.792969 C 248.265625 310.242188 257.949219 304.96875 265.78125 297.289062 C 259.367188 306.222656 249.671875 312.855469 238.992188 316.308594 C 228.289062 319.8125 216.597656 320.257812 205.542969 317.816406 C 200.011719 316.589844 194.648438 314.660156 189.59375 312.019531 C 189.277344 311.855469 188.945312 311.683594 188.65625 311.519531 L 187.667969 310.96875 L 185.921875 309.894531 L 182.433594 307.738281 L 175.5 303.414062 C 166.277344 297.660156 157.003906 292.09375 147.070312 287.773438 L 146.921875 287.707031 L 146.886719 287.683594 C 144.605469 286.125 142.257812 284.707031 139.761719 283.582031 C 137.261719 282.488281 134.566406 281.738281 131.753906 281.804688 " fill-opacity="1" fill-rule="nonzero"/><g clip-path="url(#eb84e6477f)"><path fill="#231f20" d="M 224.953125 249.542969 C 230.074219 252.636719 234.835938 256.285156 239.460938 260.097656 C 244.046875 263.964844 248.445312 268.070312 252.546875 272.484375 C 260.773438 281.265625 268.019531 291.183594 273.132812 302.308594 C 275.667969 307.875 277.652344 313.738281 278.769531 319.8125 C 279.878906 325.871094 280.148438 332.132812 279.289062 338.246094 C 278.871094 341.296875 278.242188 344.320312 277.3125 347.242188 C 276.382812 350.164062 275.238281 353 273.878906 355.722656 C 271.117188 361.140625 267.59375 366.101562 263.464844 370.417969 C 266.714844 365.410156 269.585938 360.207031 271.625 354.726562 C 273.714844 349.273438 274.980469 343.570312 275.394531 337.84375 C 276.207031 326.34375 273.390625 314.898438 268.566406 304.402344 C 263.746094 293.863281 257.054688 284.160156 249.617188 275.066406 C 245.863281 270.542969 241.925781 266.136719 237.792969 261.898438 C 233.6875 257.632812 229.402344 253.523438 224.953125 249.542969 " fill-opacity="1" fill-rule="nonzero"/></g><path fill="#231f20" d="M 268.488281 73.550781 C 270.109375 79.226562 270.945312 85.109375 271.46875 91.007812 C 271.914062 96.917969 271.945312 102.882812 271.398438 108.835938 C 270.363281 120.707031 267.109375 132.660156 260.800781 143.109375 C 257.640625 148.308594 253.75 153.09375 249.203125 157.152344 C 244.671875 161.222656 239.539062 164.589844 234.066406 167.121094 C 228.609375 169.710938 222.875 171.476562 217.007812 172.648438 C 214.257812 173.136719 211.546875 174.066406 209.078125 175.476562 C 207.84375 176.175781 206.667969 177.007812 205.597656 177.96875 C 204.523438 178.925781 203.535156 180.007812 202.75 181.253906 C 203.855469 178.5 205.925781 176.167969 208.304688 174.316406 C 210.710938 172.457031 213.507812 171.148438 216.441406 170.246094 C 221.941406 168.570312 227.304688 166.355469 232.289062 163.625 C 237.261719 160.84375 241.90625 157.554688 245.976562 153.648438 C 250.058594 149.769531 253.585938 145.328125 256.503906 140.503906 C 262.363281 130.832031 265.742188 119.726562 267.519531 108.367188 C 268.375 102.667969 268.886719 96.886719 269.015625 91.074219 C 269.183594 85.257812 269.015625 79.414062 268.488281 73.550781 " fill-opacity="1" fill-rule="nonzero"/><path fill="#231f20" d="M 271.710938 70.097656 C 273.308594 72.339844 274.464844 74.84375 275.492188 77.402344 C 276.480469 79.972656 277.230469 82.65625 277.691406 85.417969 C 278.636719 90.917969 278.425781 96.832031 276.402344 102.34375 L 275.695312 104.195312 C 275.480469 104.78125 275.273438 105.375 275.089844 105.972656 C 274.71875 107.164062 274.390625 108.375 274.132812 109.597656 C 273.617188 112.046875 273.34375 114.550781 273.335938 117.085938 C 273.320312 119.625 273.570312 122.1875 274.027344 124.765625 C 274.472656 127.351562 275.222656 129.914062 275.90625 132.5625 C 272.695312 128.203125 270.300781 123.003906 269.546875 117.351562 C 269.167969 114.539062 269.160156 111.652344 269.554688 108.816406 C 269.75 107.398438 270.027344 105.988281 270.402344 104.609375 C 270.589844 103.917969 270.796875 103.242188 271.015625 102.554688 L 271.371094 101.550781 L 271.707031 100.640625 C 273.332031 96.03125 273.78125 90.972656 273.640625 85.832031 C 273.46875 80.675781 272.742188 75.449219 271.710938 70.097656 " fill-opacity="1" fill-rule="nonzero"/><path fill="#231f20" d="M 200.488281 73.550781 C 195.386719 76.429688 190.429688 79.496094 185.652344 82.78125 C 180.847656 86.039062 176.238281 89.539062 171.851562 93.246094 C 167.496094 97 163.363281 100.96875 159.6875 105.292969 C 156.015625 109.609375 152.785156 114.269531 150.371094 119.285156 C 149.15625 121.785156 148.148438 124.375 147.40625 127.035156 C 147.019531 128.363281 146.710938 129.707031 146.460938 131.0625 C 146.207031 132.394531 146.085938 133.84375 145.726562 135.445312 C 144.40625 141.542969 141.742188 147.101562 138.527344 152.148438 C 135.332031 157.222656 131.542969 161.824219 127.484375 166.113281 C 123.371094 170.351562 119.035156 174.347656 114.273438 177.789062 C 118.285156 173.515625 122.097656 169.113281 125.613281 164.503906 C 129.15625 159.925781 132.402344 155.136719 135.152344 150.15625 C 137.839844 145.148438 140.082031 139.90625 141.050781 134.523438 C 141.292969 133.261719 141.410156 131.792969 141.660156 130.246094 C 141.90625 128.722656 142.226562 127.207031 142.621094 125.714844 C 143.425781 122.738281 144.523438 119.855469 145.851562 117.097656 C 148.527344 111.585938 152.089844 106.609375 156.117188 102.152344 C 160.160156 97.699219 164.648438 93.722656 169.417969 90.191406 C 174.167969 86.625 179.199219 83.492188 184.378906 80.683594 C 189.589844 77.933594 194.921875 75.425781 200.488281 73.550781 " fill-opacity="1" fill-rule="nonzero"/><path fill="#231f20" d="M 232.085938 283.039062 L 232.042969 284.039062 C 232.015625 284.367188 231.960938 284.699219 231.917969 285.027344 C 231.800781 285.679688 231.636719 286.328125 231.402344 286.957031 C 230.964844 288.207031 230.296875 289.402344 229.453125 290.433594 C 229.039062 290.957031 228.585938 291.445312 228.15625 291.957031 L 226.847656 293.46875 C 225.980469 294.484375 225.039062 295.429688 224.144531 296.417969 C 222.351562 298.398438 220.5 300.304688 218.71875 302.285156 L 213.390625 308.230469 L 212.046875 309.730469 L 210.960938 307.324219 C 210.882812 307.148438 210.824219 306.980469 210.773438 306.804688 L 210.421875 306.179688 C 210.125 305.753906 209.847656 305.320312 209.460938 304.894531 C 208.765625 304.035156 207.921875 303.210938 207.082031 302.402344 C 206.222656 301.59375 205.328125 300.816406 204.40625 300.054688 C 203.5 299.285156 202.570312 298.53125 201.621094 297.792969 C 200.691406 297.054688 199.726562 296.308594 198.789062 295.621094 L 198.054688 295.109375 C 197.777344 294.90625 197.503906 294.703125 197.242188 294.488281 C 196.710938 294.070312 196.203125 293.625 195.703125 293.164062 C 194.710938 292.230469 193.792969 291.199219 192.96875 290.042969 C 192.144531 288.890625 191.421875 287.605469 190.953125 286.136719 C 190.71875 285.390625 190.480469 284.332031 190.464844 283.851562 L 190.417969 283.386719 L 190.394531 283.035156 L 190.398438 282.96875 L 190.410156 282.828125 L 190.425781 282.550781 C 190.457031 282.175781 190.460938 281.804688 190.519531 281.4375 C 190.699219 279.953125 191.171875 278.507812 191.839844 277.1875 C 193.148438 274.523438 195.410156 272.394531 198.03125 271.175781 C 199.359375 270.546875 200.71875 270.195312 202.21875 270.03125 C 202.59375 269.996094 202.996094 269.949219 203.277344 269.964844 L 204.300781 269.980469 C 205.003906 270.050781 205.699219 270.125 206.382812 270.304688 C 207.746094 270.632812 209.058594 271.144531 210.210938 271.894531 C 211.375 272.632812 212.402344 273.539062 213.269531 274.570312 L 211.683594 274.570312 C 212.15625 274.167969 212.605469 273.742188 213.125 273.414062 C 213.613281 273.042969 214.164062 272.765625 214.691406 272.472656 C 215.25 272.230469 215.792969 271.957031 216.371094 271.792969 C 216.9375 271.582031 217.535156 271.46875 218.113281 271.347656 C 218.707031 271.273438 219.355469 271.171875 219.902344 271.191406 L 220.777344 271.195312 L 221.65625 271.289062 C 222.238281 271.359375 222.816406 271.488281 223.375 271.636719 L 224.207031 271.890625 L 225.011719 272.222656 C 225.542969 272.460938 226.054688 272.730469 226.539062 273.039062 C 227.03125 273.339844 227.488281 273.6875 227.925781 274.054688 C 228.351562 274.441406 228.785156 274.820312 229.140625 275.269531 C 229.53125 275.683594 229.855469 276.152344 230.183594 276.613281 C 230.472656 277.105469 230.78125 277.585938 230.996094 278.113281 C 231.25 278.617188 231.410156 279.164062 231.609375 279.695312 C 231.742188 280.246094 231.902344 280.785156 231.957031 281.351562 C 232.066406 281.910156 232.050781 282.480469 232.085938 283.039062 Z M 232.085938 283.039062 C 232.042969 282.480469 232.050781 281.910156 231.9375 281.355469 C 231.871094 280.792969 231.707031 280.253906 231.566406 279.707031 C 231.367188 279.179688 231.195312 278.636719 230.917969 278.148438 C 230.6875 277.636719 230.359375 277.171875 230.058594 276.703125 C 229.710938 276.257812 229.378906 275.808594 228.980469 275.417969 C 228.601562 275 228.15625 274.660156 227.722656 274.3125 C 227.273438 273.984375 226.808594 273.675781 226.320312 273.421875 C 226.082031 273.273438 225.824219 273.175781 225.570312 273.0625 C 225.3125 272.957031 225.070312 272.835938 224.800781 272.765625 L 224.015625 272.519531 L 223.210938 272.347656 C 222.679688 272.25 222.128906 272.195312 221.585938 272.191406 L 220.773438 272.199219 L 219.960938 272.289062 C 219.671875 272.308594 219.410156 272.363281 219.164062 272.429688 C 218.90625 272.492188 218.652344 272.53125 218.402344 272.613281 C 217.894531 272.78125 217.390625 272.9375 216.917969 273.183594 C 216.425781 273.375 215.992188 273.679688 215.542969 273.949219 C 215.128906 274.269531 214.699219 274.5625 214.328125 274.929688 C 213.9375 275.265625 213.613281 275.675781 213.269531 276.054688 L 212.550781 276.835938 L 211.683594 276.054688 C 210.851562 275.308594 209.921875 274.699219 208.933594 274.25 C 207.953125 273.78125 206.890625 273.546875 205.847656 273.445312 C 205.320312 273.378906 204.789062 273.410156 204.273438 273.421875 L 203.457031 273.511719 C 203.117188 273.53125 202.917969 273.601562 202.6875 273.652344 C 201.773438 273.875 200.746094 274.246094 199.914062 274.789062 C 198.207031 275.855469 196.828125 277.402344 196.089844 279.203125 C 195.722656 280.101562 195.453125 281.039062 195.378906 282 C 195.34375 282.238281 195.363281 282.484375 195.347656 282.722656 L 195.34375 282.902344 L 195.339844 282.992188 L 195.335938 283.035156 C 195.304688 282.457031 195.328125 282.882812 195.324219 282.757812 L 195.324219 282.773438 L 195.328125 282.800781 L 195.390625 283.257812 C 195.464844 284 195.578125 284.128906 195.6875 284.5625 C 195.964844 285.4375 196.488281 286.300781 197.0625 287.15625 C 197.648438 288.007812 198.363281 288.824219 199.136719 289.601562 C 199.519531 289.984375 199.925781 290.367188 200.339844 290.722656 C 200.550781 290.90625 200.761719 291.078125 200.972656 291.246094 L 201.722656 291.828125 C 202.714844 292.65625 203.644531 293.472656 204.578125 294.320312 C 205.5 295.175781 206.40625 296.054688 207.292969 296.953125 C 208.167969 297.863281 209.023438 298.808594 209.851562 299.789062 C 210.667969 300.789062 211.488281 301.773438 212.203125 302.929688 C 212.570312 303.476562 212.886719 304.121094 213.195312 304.761719 L 213.59375 305.816406 C 213.6875 306.238281 213.753906 306.667969 213.816406 307.085938 L 211.386719 306.1875 L 217.503906 301.019531 C 219.535156 299.296875 221.578125 297.582031 223.585938 295.839844 L 225.066406 294.511719 C 225.554688 294.0625 226.0625 293.632812 226.523438 293.15625 L 227.917969 291.738281 C 228.375 291.257812 228.871094 290.804688 229.296875 290.304688 C 229.742188 289.808594 230.128906 289.277344 230.472656 288.710938 C 230.824219 288.152344 231.121094 287.558594 231.355469 286.9375 C 231.59375 286.316406 231.765625 285.671875 231.894531 285.019531 C 231.9375 284.695312 232 284.367188 232.03125 284.039062 L 232.085938 283.039062 " fill-opacity="1" fill-rule="nonzero"/><g clip-path="url(#7653f7e717)"><path fill="#231f20" d="M 121.648438 317.035156 L 120.328125 330.820312 C 119.925781 335.351562 119.621094 339.839844 119.574219 344.292969 C 119.527344 348.746094 119.722656 353.171875 120.421875 357.53125 C 121.117188 361.898438 122.339844 366.164062 124.417969 370.417969 C 120.671875 367.46875 118.105469 363.066406 116.589844 358.484375 C 115.066406 353.875 114.492188 349.011719 114.550781 344.238281 C 114.613281 339.453125 115.289062 334.730469 116.453125 330.152344 C 117.640625 325.589844 119.242188 321.121094 121.648438 317.035156 " fill-opacity="1" fill-rule="nonzero"/></g></svg>