<svg width="183" height="373" xmlns="http://www.w3.org/2000/svg" xmlns:xlink="http://www.w3.org/1999/xlink" xml:space="preserve" overflow="hidden"><defs><clipPath id="clip0"><rect x="552" y="170" width="183" height="373"/></clipPath><clipPath id="clip1"><rect x="587" y="176" width="105" height="113"/></clipPath><clipPath id="clip2"><rect x="672" y="393" width="50" height="109"/></clipPath><clipPath id="clip3"><rect x="575" y="453" width="10" height="49"/></clipPath></defs><g clip-path="url(#clip0)" transform="translate(-552 -170)"><path d="M266.222 90.486C270.063 88.1945 274.169 86.3386 278.426 84.861 282.682 83.3991 287.114 82.3622 291.671 81.9371 296.218 81.5639 300.91 81.8542 305.404 83.2436 309.894 84.6174 314.057 87.2043 317.349 90.6156 318.997 92.3108 320.449 94.1927 321.698 96.1886 322.932 98.1898 323.969 100.289 324.861 102.436 326.629 106.744 327.795 111.233 328.588 115.749 328.697 116.309 328.775 116.879 328.863 117.444L328.982 118.289 329.039 118.719 329.07 118.932 329.081 119.036 329.091 119.087 329.107 119.321C329.143 119.808 329.148 120.622 329.102 121.244 329.05 121.908 328.951 122.576 328.801 123.235 328.205 125.9 326.608 128.258 324.747 129.964 322.886 131.696 320.802 132.961 318.707 134.034 316.602 135.096 314.472 135.988 312.32 136.761 308.028 138.311 303.709 139.56 299.417 140.81 295.124 142.038 290.857 143.288 286.606 144.542 278.114 147.072 269.783 150.022 261.774 153.692 253.795 157.394 246.148 161.878 239.248 167.389 232.306 172.859 226.173 179.375 220.901 186.597 225.37 178.841 231.156 171.801 237.859 165.746 244.588 159.711 252.209 154.672 260.281 150.603 268.332 146.466 276.834 143.334 285.367 140.555 293.89 137.766 302.605 135.589 310.801 132.598 312.839 131.836 314.85 131.048 316.727 130.099 318.609 129.16 320.376 128.072 321.797 126.771 323.217 125.469 324.218 123.956 324.622 122.24 324.726 121.809 324.793 121.369 324.835 120.918 324.861 120.425 324.876 120.124 324.845 119.497L324.654 118.051 324.415 116.433C323.767 112.13 322.766 107.895 321.227 103.892 319.682 99.9058 317.598 96.1472 314.798 93.0159 312.009 89.8794 308.448 87.4843 304.466 86.0379 300.49 84.5655 296.135 84.0316 291.791 84.1508 287.436 84.2338 283.065 84.9699 278.783 86.0638 276.642 86.6081 274.517 87.2562 272.422 88.0027 270.323 88.7285 268.238 89.5321 266.222 90.486" fill="#231F20" transform="matrix(1 0 0 1.00429 391.202 109.756)"/><g clip-path="url(#clip1)"><path d="M298.691 80.5011C298.634 79.5679 298.255 78.7022 297.737 77.9608 297.213 77.2143 296.555 76.5766 295.85 76.0115 294.435 74.8762 292.822 74.0052 291.153 73.295 287.804 71.8797 284.237 71.0087 280.639 70.5214 273.438 69.5105 266.087 69.946 259.047 71.5064 244.925 74.6273 232.265 82.834 223.244 94.0683 218.646 99.6258 214.887 105.878 211.803 112.467 208.661 119.036 206.292 125.988 204.311 133.054 200.434 147.238 198.495 161.977 197.292 176.804 196.654 161.935 197.624 146.891 200.952 132.209 202.585 124.863 204.944 117.657 207.987 110.71 211.082 103.794 215.001 97.1892 219.818 91.2532 224.686 85.3639 230.466 80.1589 237.024 76.1774 243.593 72.2322 250.85 69.4172 258.368 68.1159 265.874 66.768 273.604 66.8198 281.018 68.3855 284.709 69.215 288.348 70.3762 291.687 72.1907 293.346 73.1083 294.943 74.1763 296.296 75.519 296.964 76.193 297.566 76.9499 298.017 77.7897 298.468 78.6244 298.748 79.5679 298.691 80.5011" fill="#231F20" transform="matrix(1 0 0 1.00429 391.202 109.756)"/></g><path d="M199.697 145.906C196.846 149.877 194.575 154.175 192.538 158.555 190.485 162.926 188.753 167.431 187.193 171.988 184.134 181.122 181.874 190.501 180.231 199.998 178.582 209.501 177.535 219.118 176.845 228.786 176.187 238.46 175.943 248.186 175.72 257.979 174.103 248.315 173.372 238.496 173.393 228.667 173.382 218.833 174.175 208.967 175.865 199.236 177.566 189.516 180.153 179.899 183.968 170.764 185.855 166.192 188.074 161.754 190.63 157.529 191.937 155.429 193.295 153.366 194.793 151.406 196.291 149.457 197.878 147.554 199.697 145.906" fill="#231F20" transform="matrix(1 0 0 1.00429 391.202 109.756)"/><path d="M315.887 130.809C316.608 131.54 317.09 132.484 317.458 133.443 317.831 134.412 318.049 135.439 318.178 136.47 318.438 138.534 318.318 140.633 317.987 142.681 317.333 146.797 315.882 150.722 314.181 154.48 313.326 156.362 312.362 158.192 311.361 159.991 310.386 161.64 309.795 163.506 309.355 165.404 308.484 169.209 308.489 173.196 309.225 177.042L309.23 177.053 309.241 177.146C309.261 177.467 309.241 177.587 309.21 177.799 309.179 177.991 309.121 178.188 309.039 178.385 308.873 178.774 308.567 179.152 308.209 179.396 307.468 179.883 306.778 179.894 306.244 179.868 305.171 179.785 304.368 179.468 303.569 179.147L303.248 178.96C303.351 179.038 303.258 178.971 303.248 178.971L303.134 178.935C303.051 178.914 302.957 178.903 302.859 178.903 302.652 178.914 302.413 178.981 302.149 179.121L302.32 179.017C302.149 179.147 301.848 179.422 301.656 179.66 301.444 179.914 301.262 180.179 301.122 180.454 300.842 181.003 300.739 181.553 300.806 182.102L300.806 182.138C300.832 182.356 300.801 182.569 300.723 182.755 300.614 183.02 300.567 183.077 300.485 183.212 300.407 183.326 300.329 183.434 300.246 183.533 300.075 183.73 299.883 183.906 299.676 184.046 299.261 184.337 298.8 184.513 298.359 184.596 297.483 184.756 296.721 184.632 296.052 184.451 294.714 184.067 293.641 183.44 292.62 182.781L294.403 180.682 296.389 182.875 296.881 183.424 297.042 183.6C297.146 183.72 297.213 183.823 297.281 183.937 297.41 184.16 297.524 184.414 297.581 184.725 297.727 185.353 297.462 186.151 297.099 186.545 296.741 186.965 296.384 187.162 296.062 187.328 295.886 187.421 295.694 187.468 295.508 187.473L295.466 187.473C295.368 187.478 295.088 187.509 294.896 187.551 294.683 187.592 294.471 187.654 294.269 187.732 293.859 187.877 293.496 188.085 293.185 188.339 292.869 188.593 292.62 188.909 292.413 189.267 292.309 189.443 292.221 189.635 292.143 189.837L292.065 190.055 291.972 190.288 291.78 190.718C290.733 192.937 289.328 194.959 287.462 196.618 285.621 198.272 283.2 199.449 280.67 199.63 278.14 199.848 275.688 199.2 273.526 198.215 272.438 197.722 271.406 197.136 270.426 196.483 269.498 195.897 268.487 195.223 267.575 194.539 265.714 193.165 263.956 191.667 262.313 190.055 259.016 186.856 256.133 183.227 253.878 179.261 256.558 182.952 259.684 186.26 263.116 189.168 264.843 190.609 266.637 191.973 268.503 193.202 269.452 193.829 270.359 194.363 271.391 194.933 272.339 195.488 273.314 195.98 274.314 196.39 276.3 197.204 278.42 197.634 280.437 197.38 282.449 197.126 284.304 196.183 285.813 194.778 287.322 193.373 288.53 191.558 289.369 189.635L289.515 189.282 289.577 189.127 289.644 188.94C289.758 188.603 289.898 188.277 290.069 187.955 290.422 187.323 290.894 186.732 291.459 186.265 292.024 185.793 292.661 185.43 293.32 185.187 293.652 185.062 293.983 184.959 294.326 184.881 294.689 184.813 294.974 184.756 295.44 184.741L294.844 184.881C294.963 184.829 295.031 184.756 294.989 184.798 294.948 184.813 294.844 185.093 294.891 185.233L294.927 185.342 294.948 185.373 294.968 185.399 294.953 185.379 294.922 185.347 294.86 185.28 294.357 184.736 292.356 182.558C291.837 181.993 291.868 181.112 292.433 180.593 292.905 180.153 293.6 180.111 294.118 180.443L294.134 180.454C295.015 181.019 295.938 181.511 296.788 181.744 297.203 181.864 297.597 181.9 297.835 181.848 297.955 181.827 298.032 181.796 298.084 181.76L298.146 181.708 298.162 181.687C298.157 181.708 298.183 181.641 298.126 181.775L298.048 182.429C297.913 181.299 298.172 180.122 298.68 179.178 298.929 178.696 299.235 178.271 299.567 177.877 299.925 177.473 300.23 177.161 300.733 176.783L300.879 176.69 300.904 176.674C301.444 176.405 302.076 176.197 302.776 176.176 303.123 176.171 303.486 176.208 303.834 176.301 304.01 176.353 304.186 176.415 304.357 176.488 304.549 176.581 304.658 176.622 304.943 176.835L304.627 176.643C305.259 176.918 305.933 177.141 306.41 177.172 306.649 177.203 306.783 177.13 306.695 177.177L306.592 177.307 306.592 177.327C306.592 177.353 306.586 177.276 306.597 177.4L306.612 177.509C305.912 173.325 306.006 168.976 307.069 164.844 307.623 162.796 308.365 160.748 309.541 158.923 310.599 157.202 311.579 155.445 312.528 153.666 314.389 150.1 315.985 146.377 316.919 142.474 317.364 140.524 317.65 138.518 317.577 136.517 317.541 135.516 317.411 134.516 317.157 133.541 316.898 132.572 316.53 131.607 315.887 130.809" fill="#231F20" transform="matrix(1 0 0 1.00429 391.202 109.756)"/><path d="M247.989 159.188C247.698 163.268 247.061 167.332 246.045 171.319 245.013 175.295 243.593 179.189 241.757 182.89 240.835 184.746 239.803 186.545 238.667 188.277L238.237 188.925 238.014 189.246 237.911 189.407 237.854 189.484 237.786 189.573 237.755 189.614C237.428 190.008 237.123 190.402 236.77 190.801 236.096 191.605 235.386 192.357 234.67 193.113 231.772 196.094 228.517 198.718 225.069 201.014 221.622 203.311 218.013 205.322 214.39 207.235L208.951 210.076C207.184 210.958 205.457 212 203.809 213.088 197.173 217.433 191.517 223.301 187.955 230.29 186.172 233.768 184.922 237.506 184.207 241.337 184.036 242.302 183.896 243.266 183.787 244.235L183.751 244.598 183.74 244.692C183.73 244.795 183.745 244.603 183.74 244.64L183.74 244.686 183.73 244.878 183.694 245.645 183.606 247.201C183.471 249.29 183.279 251.353 183.03 253.422 182.03 261.68 180.194 269.757 178.193 277.705L175.176 289.582C174.683 291.557 174.206 293.527 173.75 295.508L173.066 298.483C172.864 299.406 172.682 300.386 172.532 301.345 171.334 309.08 172.117 317.069 174.17 324.711L173.849 324.026C177.037 328.578 181.029 332.565 185.477 336.007 189.925 339.455 194.819 342.363 199.905 344.924 204.985 347.485 210.294 349.709 215.67 351.653 221.103 353.597 226.573 355.443 232.083 357.086 243.09 360.425 254.355 362.996 265.776 363.795 277.171 364.645 288.773 363.499 299.557 359.554L299.629 359.528 299.681 359.512C300.998 359.227 302.361 358.595 303.647 357.895 304.943 357.185 306.192 356.376 307.406 355.5 309.832 353.758 312.097 351.772 314.15 349.579 316.198 347.386 318.033 344.981 319.48 342.337 320.905 339.698 321.927 336.774 322.02 333.721 322.103 336.774 321.242 339.802 319.941 342.575 318.629 345.349 316.867 347.895 314.881 350.233 312.885 352.571 310.666 354.712 308.251 356.625 307.037 357.579 305.772 358.47 304.435 359.274 303.087 360.062 301.703 360.803 300.07 361.239L300.194 361.197C289.318 365.734 277.332 367.237 265.615 366.734 253.852 366.226 242.291 363.821 231.041 360.694 225.417 359.098 219.869 357.309 214.353 355.417 208.791 353.488 203.352 351.295 198.033 348.708 192.73 346.111 187.597 343.068 182.843 339.434 178.105 335.8 173.766 331.517 170.256 326.561L170.038 326.25 169.935 325.872C167.685 317.769 166.866 309.116 168.219 300.666 168.385 299.608 168.582 298.577 168.82 297.509L169.525 294.512C169.997 292.511 170.489 290.515 170.992 288.524L174.072 276.647C176.099 268.762 178.038 260.892 179.1 252.914 179.365 250.928 179.583 248.922 179.733 246.936L179.842 245.433 179.883 244.671 179.914 244.287 179.93 244.184 179.971 243.784C180.106 242.727 180.272 241.674 180.479 240.622 181.304 236.428 182.776 232.363 184.808 228.62 188.862 221.098 195.078 214.965 202.181 210.543 203.974 209.444 205.784 208.428 207.692 207.541L213.197 204.887C216.842 203.098 220.434 201.237 223.846 199.112 227.267 197.002 230.507 194.607 233.411 191.838 234.131 191.143 234.852 190.433 235.521 189.697 235.858 189.344 236.195 188.94 236.532 188.567L236.951 188.012 237.392 187.4C238.559 185.762 239.632 184.051 240.617 182.289 242.587 178.763 244.163 175.005 245.371 171.122 246.599 167.244 247.465 163.242 247.989 159.188" fill="#231F20" transform="matrix(1 0 0 1.00429 391.202 109.756)"/><path d="M221.72 228.512C224.053 229.388 225.956 231.27 227.387 233.359 228.807 235.495 229.787 237.916 230.373 240.404 230.99 242.898 231.254 245.454 231.275 247.999 231.311 250.539 231.145 253.075 230.782 255.573 230.088 260.576 228.843 265.46 227.231 270.188 225.639 274.921 223.711 279.519 221.57 283.993L221.653 283.791C220.673 286.554 219.636 289.255 218.584 291.936 217.495 294.606 216.453 297.275 215.421 299.94 214.379 302.61 213.415 305.301 212.508 308.017 211.632 310.744 210.812 313.497 210.144 316.317 210.185 313.414 210.501 310.511 211.004 307.644 211.492 304.767 212.181 301.936 212.922 299.121 213.674 296.316 214.566 293.553 215.421 290.8 216.303 288.053 217.225 285.336 218.029 282.614L218.05 282.552 218.107 282.412C220.035 277.949 221.839 273.443 223.426 268.881 224.986 264.314 226.376 259.695 227.283 254.998 227.708 252.644 228.076 250.291 228.232 247.916 228.377 245.552 228.377 243.173 228.086 240.829 227.781 238.496 227.231 236.179 226.205 234.043 225.199 231.918 223.773 229.88 221.72 228.512" fill="#231F20" transform="matrix(1 0 0 1.00429 391.202 109.756)"/><path d="M262.194 189.583C260.099 194.228 258.352 199.008 257.305 203.881 256.771 206.313 256.418 208.765 256.403 211.181 256.392 213.586 256.657 215.966 257.471 218.081 258.269 220.191 259.602 221.985 261.323 223.343 262.199 224.048 263.111 224.525 264.283 225.183L267.616 227.065C272.049 229.621 276.435 232.348 280.598 235.464 284.745 238.6 288.727 242.115 291.951 246.449 293.538 248.616 294.937 250.996 295.881 253.609 296.835 256.206 297.307 259.042 297.125 261.826 296.959 264.615 296.202 267.321 295.02 269.747 293.828 272.173 292.304 274.366 290.593 276.341 287.125 280.261 283.045 283.454 278.711 286.129 282.449 282.671 286.062 279.084 288.882 274.994 291.718 270.971 293.714 266.351 293.667 261.732 293.646 259.425 293.123 257.165 292.236 255.029 291.334 252.893 290.085 250.876 288.602 249 285.632 245.246 281.894 241.991 277.938 239.02 273.977 236.039 269.757 233.333 265.47 230.679L262.235 228.698C261.209 228.086 259.902 227.298 258.839 226.35 256.636 224.478 255.003 221.902 254.205 219.185 253.386 216.469 253.24 213.679 253.51 211.02 253.79 208.35 254.402 205.784 255.216 203.306 256.911 198.381 259.244 193.756 262.194 189.583" fill="#231F20" transform="matrix(1 0 0 1.00429 391.202 109.756)"/><path d="M199.697 311.978C202.139 311.475 204.731 311.786 207.152 312.496 209.589 313.186 211.875 314.295 214.089 315.462L213.928 315.379C223.229 318.344 231.99 322.818 240.383 327.614L246.651 331.253 249.757 333.099 251.307 334.011 252.795 334.789C256.906 336.878 261.312 338.47 265.823 339.522 274.854 341.632 284.403 341.622 293.491 339.372 302.574 337.116 311.123 332.456 318.038 325.67 312.372 333.56 303.813 339.423 294.383 342.477 284.932 345.572 274.61 345.971 264.853 343.809 259.964 342.726 255.231 341.02 250.768 338.687 250.488 338.542 250.197 338.392 249.943 338.247L249.067 337.759 247.527 336.805 244.448 334.903 238.325 331.077C230.181 325.991 221.995 321.076 213.223 317.256L213.094 317.199 213.062 317.178C211.046 315.799 208.972 314.544 206.769 313.549 204.56 312.585 202.181 311.921 199.697 311.978" fill="#231F20" transform="matrix(1 0 0 1.00429 391.202 109.756)"/><g clip-path="url(#clip2)"><path d="M281.987 283.465C286.508 286.197 290.717 289.421 294.803 292.796 298.846 296.213 302.729 299.842 306.353 303.74 313.616 311.501 320.014 320.268 324.529 330.102 326.769 335.022 328.516 340.206 329.506 345.572 330.486 350.932 330.724 356.464 329.967 361.866 329.594 364.562 329.039 367.237 328.22 369.819 327.401 372.4 326.385 374.91 325.188 377.315 322.751 382.1 319.64 386.486 315.991 390.302 318.863 385.874 321.398 381.281 323.197 376.434 325.042 371.612 326.157 366.573 326.525 361.514 327.246 351.347 324.757 341.233 320.496 331.953 316.239 322.637 310.335 314.062 303.766 306.026 300.448 302.024 296.975 298.131 293.325 294.383 289.701 290.614 285.917 286.985 281.987 283.465" fill="#231F20" transform="matrix(1 0 0 1.00429 391.202 109.756)"/></g><path d="M320.428 127.911C321.859 132.929 322.595 138.124 323.057 143.339 323.451 148.565 323.482 153.838 322.995 159.094 322.087 169.592 319.21 180.153 313.637 189.391 310.848 193.984 307.416 198.215 303.403 201.802 299.401 205.4 294.865 208.376 290.038 210.615 285.217 212.902 280.152 214.467 274.973 215.499 272.547 215.929 270.151 216.754 267.974 217.998 266.88 218.615 265.843 219.351 264.9 220.201 263.951 221.046 263.075 222.005 262.385 223.104 263.36 220.673 265.185 218.61 267.29 216.977 269.415 215.328 271.883 214.172 274.475 213.374 279.328 211.896 284.066 209.936 288.467 207.526 292.858 205.068 296.959 202.16 300.552 198.707 304.155 195.275 307.271 191.351 309.847 187.089 315.021 178.541 318.002 168.722 319.573 158.685 320.33 153.646 320.781 148.534 320.895 143.396 321.04 138.259 320.895 133.09 320.428 127.911" fill="#231F20" transform="matrix(1 0 0 1.00429 391.202 109.756)"/><path d="M323.275 124.858C324.685 126.838 325.706 129.052 326.613 131.312 327.484 133.588 328.148 135.957 328.552 138.399 329.387 143.256 329.205 148.487 327.417 153.355L326.795 154.999C326.603 155.512 326.421 156.036 326.255 156.564 325.929 157.622 325.639 158.69 325.41 159.768 324.959 161.935 324.716 164.149 324.705 166.389 324.695 168.633 324.913 170.899 325.322 173.175 325.711 175.461 326.375 177.727 326.976 180.07 324.14 176.213 322.03 171.62 321.367 166.622 321.03 164.139 321.019 161.588 321.372 159.079 321.543 157.824 321.787 156.58 322.118 155.362 322.284 154.75 322.466 154.154 322.658 153.547L322.974 152.656 323.269 151.857C324.705 147.777 325.105 143.308 324.98 138.762 324.825 134.21 324.182 129.586 323.275 124.858" fill="#231F20" transform="matrix(1 0 0 1.00429 391.202 109.756)"/><path d="M260.389 127.911C255.884 130.457 251.509 133.163 247.289 136.071 243.048 138.948 238.979 142.038 235.101 145.32 231.259 148.638 227.604 152.142 224.364 155.963 221.119 159.779 218.267 163.9 216.137 168.333 215.064 170.541 214.177 172.833 213.519 175.186 213.177 176.358 212.902 177.545 212.684 178.743 212.461 179.92 212.352 181.2 212.036 182.615 210.87 188.007 208.516 192.922 205.68 197.38 202.86 201.864 199.511 205.934 195.928 209.724 192.3 213.467 188.468 217.002 184.264 220.046 187.805 216.266 191.175 212.373 194.275 208.298 197.406 204.254 200.268 200.024 202.699 195.617 205.074 191.19 207.054 186.561 207.909 181.801 208.122 180.687 208.226 179.386 208.443 178.022 208.666 176.674 208.946 175.337 209.294 174.02 210.004 171.386 210.973 168.836 212.145 166.399 214.509 161.526 217.656 157.13 221.212 153.19 224.779 149.255 228.745 145.74 232.954 142.619 237.148 139.467 241.591 136.698 246.164 134.215 250.768 131.784 255.475 129.565 260.389 127.911" fill="#231F20" transform="matrix(1 0 0 1.00429 391.202 109.756)"/><path d="M288.286 313.072 288.25 313.953C288.224 314.244 288.177 314.539 288.141 314.829 288.032 315.405 287.887 315.98 287.685 316.535 287.296 317.639 286.71 318.697 285.963 319.604 285.595 320.071 285.196 320.501 284.818 320.952L283.662 322.289C282.894 323.186 282.065 324.021 281.277 324.897 279.69 326.644 278.057 328.329 276.487 330.081L271.779 335.333 270.592 336.66 269.633 334.535C269.566 334.379 269.514 334.234 269.467 334.073L269.156 333.524C268.897 333.151 268.653 332.762 268.311 332.388 267.694 331.626 266.953 330.901 266.211 330.185 265.449 329.47 264.661 328.785 263.847 328.111 263.044 327.432 262.225 326.764 261.385 326.11 260.566 325.457 259.716 324.799 258.886 324.192L258.238 323.741C257.994 323.56 257.751 323.378 257.523 323.192 257.051 322.818 256.605 322.429 256.164 322.02 255.288 321.196 254.474 320.283 253.748 319.262 253.023 318.241 252.385 317.105 251.965 315.809 251.763 315.146 251.55 314.212 251.54 313.787L251.499 313.378 251.478 313.067 251.478 313.01 251.488 312.885 251.504 312.636C251.53 312.31 251.535 311.978 251.587 311.657 251.747 310.345 252.162 309.064 252.748 307.898 253.909 305.544 255.905 303.662 258.217 302.584 259.389 302.029 260.592 301.718 261.919 301.573 262.245 301.542 262.603 301.501 262.847 301.516L263.754 301.527C264.371 301.594 264.988 301.656 265.595 301.812 266.797 302.107 267.953 302.558 268.975 303.222 270.001 303.87 270.908 304.673 271.67 305.586L270.271 305.586C270.691 305.228 271.085 304.855 271.546 304.565 271.976 304.238 272.464 303.989 272.925 303.73 273.423 303.517 273.9 303.274 274.413 303.129 274.911 302.947 275.439 302.843 275.953 302.74 276.476 302.672 277.047 302.579 277.529 302.6L278.301 302.6 279.079 302.683C279.592 302.75 280.1 302.864 280.598 302.994L281.329 303.217 282.039 303.512C282.511 303.72 282.962 303.958 283.387 304.233 283.828 304.497 284.227 304.808 284.616 305.13 284.989 305.472 285.372 305.804 285.683 306.203 286.031 306.571 286.316 306.98 286.606 307.395 286.865 307.825 287.135 308.251 287.322 308.717 287.55 309.163 287.69 309.645 287.866 310.117 287.98 310.599 288.125 311.081 288.172 311.579 288.27 312.071 288.255 312.574 288.286 313.072ZM288.286 313.072C288.25 312.574 288.255 312.071 288.156 311.584 288.094 311.086 287.949 310.609 287.825 310.127 287.654 309.661 287.503 309.179 287.254 308.748 287.052 308.297 286.762 307.888 286.497 307.468 286.192 307.079 285.896 306.68 285.544 306.332 285.212 305.964 284.818 305.664 284.434 305.358 284.035 305.067 283.625 304.798 283.195 304.57 282.988 304.44 282.76 304.352 282.531 304.253 282.309 304.16 282.091 304.051 281.852 303.989L281.163 303.771 280.453 303.621C279.981 303.538 279.493 303.486 279.017 303.481L278.301 303.491 277.581 303.569C277.326 303.59 277.093 303.637 276.875 303.694 276.653 303.745 276.424 303.782 276.201 303.854 275.756 304.005 275.31 304.145 274.895 304.357 274.46 304.528 274.076 304.798 273.682 305.036 273.314 305.321 272.935 305.575 272.609 305.902 272.261 306.198 271.976 306.56 271.67 306.897L271.038 307.587 270.271 306.897C269.54 306.239 268.715 305.7 267.844 305.301 266.979 304.891 266.04 304.684 265.118 304.59 264.656 304.533 264.184 304.559 263.728 304.57L263.008 304.647C262.712 304.668 262.536 304.73 262.328 304.777 261.52 304.969 260.612 305.301 259.881 305.778 258.373 306.721 257.155 308.085 256.501 309.681 256.18 310.475 255.941 311.304 255.874 312.154 255.843 312.362 255.864 312.579 255.848 312.792L255.843 312.953 255.843 313.03 255.838 313.067C255.812 312.553 255.833 312.932 255.827 312.823L255.827 312.839 255.833 312.859 255.884 313.264C255.952 313.917 256.05 314.036 256.149 314.415 256.392 315.192 256.854 315.954 257.362 316.711 257.88 317.463 258.513 318.184 259.192 318.868 259.534 319.21 259.892 319.547 260.26 319.863 260.441 320.024 260.628 320.174 260.815 320.325L261.478 320.838C262.354 321.569 263.173 322.295 263.998 323.041 264.812 323.798 265.615 324.576 266.398 325.369 267.171 326.173 267.922 327.012 268.653 327.873 269.374 328.759 270.1 329.63 270.732 330.652 271.054 331.134 271.339 331.704 271.608 332.269L271.961 333.202C272.044 333.576 272.101 333.959 272.153 334.327L270.011 333.529 275.408 328.962C277.207 327.443 279.011 325.924 280.779 324.384L282.091 323.212C282.521 322.813 282.967 322.435 283.376 322.01L284.61 320.76C285.01 320.335 285.445 319.936 285.823 319.49 286.217 319.055 286.56 318.583 286.865 318.085 287.171 317.587 287.436 317.064 287.643 316.514 287.85 315.97 288.001 315.4 288.115 314.824 288.156 314.534 288.213 314.244 288.239 313.953L288.286 313.072" fill="#231F20" transform="matrix(1 0 0 1.00429 391.202 109.756)"/><g clip-path="url(#clip3)"><path d="M190.775 343.12 189.609 355.303C189.251 359.305 188.987 363.276 188.945 367.211 188.904 371.151 189.075 375.06 189.692 378.912 190.309 382.769 191.387 386.543 193.222 390.302 189.915 387.694 187.649 383.806 186.307 379.757 184.964 375.677 184.461 371.379 184.513 367.164 184.565 362.934 185.161 358.761 186.187 354.712 187.235 350.678 188.65 346.728 190.775 343.12" fill="#231F20" transform="matrix(1 0 0 1.00429 391.202 109.756)"/></g><path d="M8.97913-13.1473C8.16002-13.1473 7.37201-13.0125 6.61511-12.7533 5.86858-12.4889 5.20499-12.0949 4.62435-11.5713 4.04372-11.058 3.57713-10.4203 3.23497-9.66345 2.88763-8.90136 2.71655-8.03041 2.71655-7.05058 2.71655-6.30405 2.80468-5.62491 2.98613-5.01836 3.17795-4.42217 3.42679-3.88301 3.73266-3.40087 4.0489-2.91355 4.41698-2.49363 4.83172-2.13591 5.25683-1.77302 5.70786-1.47751 6.17963-1.24422 6.66177-1.00574 7.15945-0.829481 7.6727-0.705059 8.18075-0.591004 8.68881-0.539162 9.1865-0.539162 9.50274-0.539162 9.78787-0.544346 10.0367-0.559899 10.2959-0.58582 10.5603-0.62211 10.8247-0.663584 11.0839-0.715426 11.3639-0.788007 11.6542-0.870955 11.9445-0.953903 12.2659-1.04722 12.6288-1.16127L12.8155-0.601373C12.4681-0.419924 12.0949-0.274765 11.6957-0.165896 11.3069-0.0518425 10.918 0.0259212 10.5344 0.0829481 10.1456 0.150343 9.77232 0.197002 9.41461 0.228107 9.06726 0.269581 8.7562 0.290318 8.48144 0.290318 7.77638 0.290318 7.09206 0.212554 6.42847 0.062211 5.77526-0.0881322 5.1687-0.300686 4.60362-0.580636 4.0489-0.870955 3.54603-1.21311 3.08982-1.61749 2.6336-2.01667 2.2396-2.4677 1.90781-2.96539 1.58638-3.47345 1.33754-4.02816 1.16127-4.62435 0.979824-5.21536 0.891692-5.84784 0.891692-6.51142 0.891692-7.22685 0.979824-7.90599 1.16127-8.54365 1.33754-9.17613 1.58638-9.76713 1.90781-10.3063 2.2396-10.8558 2.63878-11.3535 3.11055-11.7994 3.59269-12.24 4.12667-12.6133 4.7073-12.9192 5.29831-13.2198 5.94115-13.4583 6.63584-13.6242 7.32535-13.7901 8.05633-13.8731 8.83397-13.8731 9.82934-13.8731 10.6847-13.8109 11.4054-13.6864 12.1363-13.5724 12.7844-13.448 13.3546-13.3132L13.0643-10.0367 12.4629-10.0367 12.4629-10.2026C12.4629-10.5344 12.4215-10.8714 12.3385-11.2187 12.2556-11.5609 12.0897-11.8823 11.8408-12.1726 11.6024-12.4629 11.2498-12.6962 10.7832-12.8777 10.327-13.054 9.72566-13.1473 8.97913-13.1473Z" transform="matrix(1 0 0 1.00429 604.097 508.536)"/><path d="M13.6864-5.14278C12.9917-5.14278 12.2867-5.16352 11.5713-5.20499 10.8662-5.25683 10.1248-5.32941 9.35239-5.41236 9.32129-5.09094 9.31092-4.79543 9.31092-4.52067 9.31092-3.80006 9.39387-3.20387 9.55976-2.73729 9.73603-2.28107 9.9745-1.91299 10.2648-1.63822 10.5551-1.37383 10.8869-1.18719 11.2602-1.07832 11.6335-0.979824 12.0171-0.933166 12.4215-0.933166 12.6807-0.933166 12.9243-0.943535 13.1473-0.97464 13.3806-1.01611 13.6138-1.07832 13.8523-1.16127 14.0856-1.24422 14.3189-1.34791 14.5574-1.47233 14.8062-1.59675 15.0654-1.75228 15.3454-1.94928L15.5942-1.55528C14.941-1.00056 14.2982-0.570269 13.6657-0.269581 13.028 0.0311055 12.3437 0.186633 11.6127 0.186633 11.2239 0.186633 10.8558 0.13479 10.5137 0.041474 10.1819-0.0518425 9.87082-0.186633 9.5805-0.352529 9.30055-0.528795 9.05171-0.746533 8.83397-0.995377 8.6266-1.24422 8.45033-1.51899 8.31554-1.82486 7.8697-1.18719 7.33054-0.689505 6.69806-0.331792 6.06039 0.0103685 5.37089 0.186633 4.62435 0.186633 3.88819 0.186633 3.27645 0.0725795 2.77876-0.145159 2.28107-0.362898 1.87152-0.663584 1.55528-1.03685 1.2494-1.41012 1.02648-1.83523 0.891692-2.32255 0.751716-2.80468 0.684321-3.30237 0.684321-3.81561 0.684321-4.23035 0.730979-4.64509 0.829481-5.05983 0.93835-5.47457 1.08869-5.85821 1.28569-6.2211 1.47751-6.59437 1.7108-6.93135 1.99075-7.23722 2.26552-7.53791 2.57657-7.8023 2.92392-8.02522 3.28163-8.25852 3.67045-8.43997 4.08519-8.56439 4.5103-8.69918 4.96133-8.77176 5.4331-8.77176 6.31442-8.77176 7.03503-8.59549 7.58975-8.25333 8.13928-7.92154 8.54883-7.47569 8.81323-6.92616 9.22797-7.5068 9.73084-7.95265 10.327-8.27407 10.9336-8.60586 11.5764-8.77176 12.2556-8.77176 12.8466-8.77176 13.3391-8.66807 13.7279-8.4607 14.1271-8.2637 14.4433-8.00967 14.6818-7.69343 14.9307-7.38756 15.1017-7.04022 15.2002-6.65658 15.2935-6.28332 15.3454-5.92042 15.3454-5.57826 15.3454-5.50568 15.3454-5.43828 15.3454-5.37089 15.3454-5.31386 15.335-5.25683 15.3247-5.20499 14.7544-5.16352 14.21-5.14278 13.6864-5.14278ZM5.03909-8.21186C4.58288-8.21186 4.16814-8.0978 3.79487-7.88007 3.43198-7.6727 3.13129-7.38756 2.88245-7.02985 2.64397-6.66695 2.45734-6.25221 2.32255-5.78563 2.18257-5.32941 2.11518-4.84209 2.11518-4.33404 2.11518-3.86227 2.16702-3.3905 2.28107-2.92392 2.40549-2.45215 2.58176-2.03223 2.82023-1.65896 3.06908-1.28569 3.38013-0.979824 3.7534-0.746533 4.12667-0.508056 4.56733-0.394003 5.08057-0.394003 5.50568-0.394003 5.88931-0.482135 6.2211-0.663584 6.56326-0.839848 6.85358-1.08869 7.09206-1.41012 7.3409-1.74191 7.51717-2.1411 7.63122-2.61286 7.75564-3.07945 7.81785-3.60824 7.81785-4.18888 7.81785-4.61399 7.76083-5.06502 7.65196-5.53678 7.53791-6.00337 7.36682-6.43884 7.13353-6.84321 6.91061-7.2424 6.62548-7.56901 6.28332-7.81785 5.93597-8.07707 5.52123-8.21186 5.03909-8.21186ZM11.9238-8.23259C11.592-8.23259 11.2913-8.16002 11.0321-8.02522 10.7677-7.9008 10.5344-7.72454 10.327-7.5068 10.1197-7.29943 9.9434-7.05058 9.80861-6.76027 9.66863-6.46995 9.55976-6.16926 9.47682-5.86858 9.93303-5.85302 10.3167-5.83747 10.6381-5.8271 10.9543-5.8271 11.2239-5.8271 11.4468-5.8271L12.4007-5.8271C12.634-5.8271 12.8673-5.8271 13.1058-5.8271 13.3391-5.83747 13.6087-5.85302 13.9145-5.86858L13.9145-5.95152C13.9145-6.30924 13.8627-6.62548 13.7694-6.90543 13.6709-7.18019 13.5309-7.41348 13.3546-7.61048 13.1887-7.81785 12.9814-7.9682 12.7325-8.0667 12.4941-8.17557 12.2245-8.23259 11.9238-8.23259Z" transform="matrix(1 0 0 1.00429 617.877 508.536)"/><path d="M0.165896-8.25333C0.7569-8.2637 1.33754-8.31554 1.90781-8.39849 2.47289-8.49181 3.01205-8.61623 3.52529-8.77176 3.38532-7.9008 3.24534-7.01429 3.11055-6.11742 2.98613-5.23091 2.92392-4.31848 2.92392-3.38013 2.92392-3.01724 2.94466-2.68026 2.98613-2.36402 3.03797-2.0426 3.13647-1.76783 3.27645-1.53454 3.41124-1.31162 3.60824-1.13017 3.85708-0.995377 4.1163-0.870955 4.45846-0.808744 4.8732-0.808744 5.09094-0.808744 5.31904-0.850218 5.55752-0.933166 5.80636-1.02648 6.04484-1.14572 6.28332-1.28569 6.53216-1.42048 6.76027-1.57601 6.96764-1.74191 7.18537-1.90781 7.38238-2.05815 7.54827-2.19812 7.58975-2.80468 7.62085-3.41124 7.65196-4.02298 7.67788-4.62954 7.69343-5.2672 7.69343-5.93079 7.69343-6.23147 7.67788-6.49587 7.65196-6.71879 7.62085-6.95208 7.55346-7.1439 7.44459-7.29943 7.33054-7.46533 7.16464-7.58975 6.9469-7.6727 6.73953-7.75564 6.4544-7.79712 6.09668-7.79712L5.93079-7.79712 5.93079-8.25333C6.63584-8.27925 7.25796-8.33628 7.79712-8.41923 8.33628-8.50218 8.84434-8.61623 9.33166-8.77176 9.30055-8.61623 9.26945-8.40367 9.22797-8.12891 9.19687-7.86451 9.16576-7.55864 9.12429-7.21648 9.09318-6.86914 9.06208-6.49587 9.0206-6.09668 8.9895-5.70786 8.96357-5.30868 8.93765-4.89394 8.90655-4.4792 8.88581-4.06446 8.87544-3.64971 8.85989-3.24534 8.8547-2.87208 8.8547-2.52992 8.8547-2.22404 8.86507-1.93891 8.89618-1.6797 8.93765-1.43085 9.00505-1.21311 9.10355-1.03685 9.21242-0.855402 9.37313-0.710242 9.5805-0.601373 9.78787-0.502872 10.0782-0.456214 10.4515-0.456214L10.6588-0.456214 10.6588 0C10.27 0.0103685 9.92266 0.0259212 9.62197 0.041474 9.3161 0.0518425 9.03097 0.0673952 8.77176 0.0829481 8.52291 0.108869 8.28444 0.13479 8.0667 0.165896 7.85933 0.20737 7.65196 0.259212 7.44459 0.331792 7.47051 0.176264 7.49643 0.020737 7.52754-0.145159 7.56901-0.321424 7.59493-0.497688 7.61048-0.663584 7.6364-0.839848 7.66233-1.01611 7.69343-1.18201 7.71935-1.34791 7.74009-1.49825 7.75564-1.63822 6.99356-0.97464 6.2885-0.502872 5.64047-0.228107 5.0028 0.0466582 4.42217 0.186633 3.89856 0.186633 3.55121 0.186633 3.24016 0.129606 2.96539 0.020737 2.68544-0.0725795 2.45215-0.233291 2.26033-0.456214 2.06333-0.689505 1.91299-0.97464 1.80412-1.30643 1.69007-1.64859 1.63822-2.06333 1.63822-2.55065 1.63822-2.86689 1.64341-3.20387 1.65896-3.56677 1.68488-3.92448 1.7108-4.27701 1.74191-4.62435 1.76783-4.98207 1.79375-5.31904 1.82486-5.64047 1.85078-5.97226 1.86633-6.26776 1.86633-6.53216 1.86633-6.97282 1.75228-7.28906 1.53454-7.48606 1.31162-7.69343 0.917613-7.79712 0.352529-7.79712L0.165896-7.79712Z" transform="matrix(1 0 0 1.00429 634.098 508.536)"/><path d="M3.44234-8.77176C3.41124-8.64734 3.38532-8.50218 3.3594-8.33628 3.32829-8.18075 3.30237-8.01486 3.27645-7.83859 3.24534-7.6727 3.21942-7.5068 3.1935-7.3409 3.16239-7.17501 3.14166-7.01948 3.13129-6.88469 3.46308-7.22685 3.7845-7.51717 4.10593-7.75564 4.42217-8.00449 4.71767-8.1963 4.99762-8.33628 5.27239-8.48662 5.52123-8.59549 5.74415-8.66807 5.96189-8.73547 6.14334-8.77176 6.28332-8.77176 6.47513-8.77176 6.62548-8.74065 6.73953-8.68881 6.86395-8.64734 6.95208-8.58512 7.00911-8.50218 7.07651-8.4296 7.12317-8.34665 7.15427-8.25333 7.19574-8.17038 7.21648-8.08744 7.21648-8.00449 7.21648-7.80749 7.15945-7.62085 7.05058-7.44459 6.95208-7.27869 6.84321-7.12317 6.71879-6.98837 6.5529-7.18019 6.37145-7.3098 6.17963-7.38238 5.98263-7.46533 5.77526-7.5068 5.55752-7.5068 5.36052-7.5068 5.16352-7.47569 4.95615-7.42385 4.75915-7.36682 4.56733-7.28906 4.37551-7.19574 4.17851-7.09724 3.98669-6.978 3.79487-6.84321 3.59787-6.70324 3.42161-6.55808 3.25571-6.40774 3.22461-5.74415 3.18313-5.10131 3.13129-4.4792 3.07426-3.85708 3.04834-3.20387 3.04834-2.52992 3.04834-2.08407 3.05871-1.72636 3.08982-1.45159 3.11574-1.17164 3.17276-0.959087 3.25571-0.808744 3.34903-0.668768 3.48382-0.570269 3.64971-0.518425 3.81561-0.476951 4.03335-0.456214 4.3133-0.456214L4.74878-0.456214 4.74878 0 4.58288 0C3.96077 0 3.40605 0.020737 2.92392 0.062211 2.4366 0.114054 1.97002 0.20737 1.5138 0.331792 1.66415-0.715426 1.78338-1.76783 1.86633-2.82023 1.95965-3.88301 2.01149-4.91986 2.01149-5.93079 2.01149-6.23147 1.99075-6.50105 1.94928-6.73953 1.91817-6.97282 1.85078-7.16464 1.74191-7.32017 1.62786-7.47051 1.47233-7.58975 1.26496-7.6727 1.05759-7.75564 0.777639-7.79712 0.435477-7.79712L0.228107-7.79712 0.228107-8.25333C0.528795-8.27925 0.798374-8.29999 1.03685-8.31554 1.28569-8.32591 1.52417-8.34665 1.76265-8.37775 2.01149-8.40367 2.26552-8.44515 2.52992-8.50218 2.78913-8.56957 3.095-8.6577 3.44234-8.77176Z" transform="matrix(1 0 0 1.00429 644.997 508.536)"/><path d="M7.58975-12.3593C7.58975-12.7325 7.56901-13.0332 7.52754-13.2717 7.48606-13.5205 7.4083-13.7124 7.29943-13.8523 7.20093-13.9871 7.06095-14.0804 6.88469-14.1219 6.70324-14.1738 6.45958-14.2049 6.15889-14.2049L5.80636-14.2049 5.80636-14.6611C6.1226-14.6714 6.41811-14.6922 6.69806-14.7233 6.97282-14.7492 7.2424-14.7855 7.5068-14.827 7.76601-14.8788 8.03041-14.9358 8.29481-14.9929 8.56957-15.0447 8.85989-15.1069 9.16576-15.1795 9.12429-14.8166 9.07244-14.3396 9.0206-13.7486 8.96357-13.1525 8.90655-12.4889 8.8547-11.7579 8.79768-11.0217 8.74065-10.2441 8.68881-9.41461 8.64734-8.59549 8.60586-7.78156 8.56439-6.96764 8.52291-6.16408 8.48662-5.39162 8.4607-4.64509 8.44515-3.90893 8.43997-3.24534 8.43997-2.65434 8.43997-2.30699 8.45033-1.99594 8.48144-1.72117 8.50736-1.45677 8.56957-1.22867 8.66807-1.03685 8.77694-0.839848 8.93765-0.694691 9.14502-0.601373 9.35239-0.502872 9.64271-0.456214 10.016-0.456214L10.2233-0.456214 10.2233 0C9.85008 0.0103685 9.50274 0.0259212 9.1865 0.041474 8.88063 0.0518425 8.59549 0.0673952 8.33628 0.0829481 8.08744 0.108869 7.84896 0.13479 7.63122 0.165896 7.42385 0.20737 7.22166 0.259212 7.02985 0.331792 7.05577 0.20737 7.08169 0.062211 7.1128-0.103685 7.13872-0.269581 7.16464-0.440661 7.19574-0.62211 7.22166-0.813928 7.2424-1.00056 7.25796-1.18201 7.28388-1.35828 7.30461-1.51899 7.32017-1.65896 6.66695-1.08869 6.04484-0.642847 5.45384-0.311055 4.85765 0.020737 4.28219 0.186633 3.73266 0.186633 3.28682 0.186633 2.88245 0.108869 2.50918-0.041474 2.14628-0.20737 1.83004-0.440661 1.55528-0.746533 1.27533-1.06277 1.06277-1.45677 0.912429-1.92854 0.7569-2.39513 0.684321-2.94466 0.684321-3.56677 0.684321-4.09038 0.746533-4.58288 0.870955-5.03909 1.00574-5.50568 1.19238-5.93597 1.43085-6.32479 1.66415-6.70843 1.93373-7.05058 2.2396-7.3409 2.55584-7.64159 2.88763-7.9008 3.23497-8.10817 3.57713-8.32591 3.94003-8.49181 4.3133-8.60586 4.69693-8.71473 5.0702-8.77176 5.4331-8.77176 5.83228-8.77176 6.18481-8.74065 6.49069-8.68881 6.80692-8.63178 7.13353-8.55402 7.46533-8.4607 7.47569-8.79249 7.49125-9.12947 7.5068-9.47682 7.51717-9.81898 7.53272-10.1611 7.54827-10.4929 7.55864-10.8351 7.56901-11.1617 7.56901-11.4676 7.57938-11.7838 7.58975-12.0793 7.58975-12.3593ZM4.4792-0.850218C4.71249-0.850218 4.94059-0.881323 5.16352-0.953903 5.39681-1.0213 5.61973-1.10943 5.8271-1.22348 6.04484-1.34791 6.26258-1.4827 6.46995-1.63822 6.67732-1.80412 6.87432-1.97002 7.07132-2.13591 7.12317-2.90837 7.18019-3.73266 7.23722-4.60362 7.28906-5.48494 7.34609-6.44921 7.40311-7.48606 7.24759-7.57938 7.09724-7.67788 6.9469-7.77638 6.79137-7.8697 6.62548-7.94746 6.44921-8.00449 6.28332-8.07188 6.09668-8.12891 5.88931-8.17038 5.69231-8.21186 5.47457-8.23259 5.22573-8.23259 4.79543-8.23259 4.39625-8.12891 4.02298-7.92154 3.64971-7.72454 3.32311-7.44977 3.04834-7.09206 2.76839-6.72916 2.55065-6.2885 2.38476-5.76489 2.21886-5.25165 2.13591-4.67101 2.13591-4.02298 2.13591-3.42679 2.20331-2.9291 2.34328-2.52992 2.47807-2.12554 2.65952-1.80412 2.88245-1.55528 3.10018-1.30643 3.34903-1.12498 3.62898-1.01611 3.9193-0.902061 4.19924-0.850218 4.4792-0.850218Z" transform="matrix(1 0 0 1.00429 656.55 508.536)"/><path d="M6.53216-5.14278C5.8271-5.14278 5.12204-5.16352 4.41698-5.20499 3.71193-5.25683 2.97058-5.32941 2.19812-5.41236 2.15665-5.09094 2.13591-4.79543 2.13591-4.52067 2.14628-3.80006 2.2396-3.20387 2.40549-2.73729 2.58176-2.28107 2.82023-1.91299 3.11055-1.63822 3.40087-1.37383 3.73266-1.18719 4.10593-1.07832 4.4792-0.979824 4.86283-0.933166 5.2672-0.933166 5.51605-0.933166 5.75452-0.943535 5.993-0.97464 6.22629-1.01611 6.45958-1.07832 6.69806-1.16127 6.93135-1.24422 7.16464-1.34791 7.40311-1.47233 7.65196-1.59675 7.91117-1.75228 8.19112-1.94928L8.43997-1.55528C7.78675-1.00056 7.13872-0.570269 6.49069-0.269581 5.85302 0.0311055 5.1687 0.186633 4.43772 0.186633 3.85708 0.186633 3.32829 0.0829481 2.86171-0.124422 2.40549-0.34216 2.01149-0.632478 1.6797-0.995377 1.35828-1.36864 1.10943-1.79375 0.933166-2.28107 0.76727-2.77876 0.684321-3.28682 0.684321-3.81561 0.684321-4.52067 0.798374-5.1687 1.03685-5.76489 1.27014-6.37145 1.58638-6.89506 1.99075-7.3409 2.40549-7.78156 2.88245-8.12891 3.42161-8.37775 3.96077-8.63697 4.52067-8.77176 5.10131-8.77176 5.69231-8.77176 6.18481-8.66807 6.57363-8.4607 6.97282-8.2637 7.28906-8.00967 7.52754-7.69343 7.76083-7.38756 7.92672-7.04022 8.02522-6.65658 8.13409-6.28332 8.19112-5.92042 8.19112-5.57826 8.19112-5.50568 8.19112-5.43828 8.19112-5.37089 8.19112-5.31386 8.18075-5.25683 8.17038-5.20499 7.60012-5.16352 7.05577-5.14278 6.53216-5.14278ZM4.74878-8.19112C4.41698-8.19112 4.1163-8.12891 3.85708-8.00449 3.59269-7.88007 3.3594-7.7038 3.15203-7.48606 2.95502-7.27869 2.78394-7.02985 2.6336-6.73953 2.49363-6.45958 2.38476-6.16926 2.30181-5.86858 2.76839-5.85302 3.15721-5.83747 3.46308-5.8271 3.77932-5.8271 4.0489-5.8271 4.27182-5.8271L5.24646-5.8271C5.47976-5.8271 5.70786-5.8271 5.93079-5.8271 6.16408-5.83747 6.43884-5.85302 6.76027-5.86858L6.76027-5.95152C6.76027-6.30924 6.70843-6.62548 6.61511-6.90543 6.51661-7.18019 6.37663-7.4083 6.20037-7.58975 6.01892-7.78156 5.80636-7.92672 5.55752-8.02522 5.31904-8.13409 5.04946-8.19112 4.74878-8.19112Z" transform="matrix(1 0 0 1.00429 666.931 508.536)"/><path d="M15.4906 0C15.1432 0.0103685 14.827 0.020737 14.5366 0.020737 14.2463 0.0311055 13.9612 0.0466582 13.6864 0.062211 13.422 0.0881322 13.168 0.114054 12.9192 0.145159 12.6703 0.186633 12.4215 0.248844 12.1726 0.331792 12.2245-0.0518425 12.2815-0.482135 12.3385-0.953903 12.4059-1.43604 12.4681-1.91817 12.5252-2.40549 12.577-2.88763 12.6185-3.3594 12.6496-3.81561 12.6911-4.28219 12.7118-4.69175 12.7118-5.03909 12.7118-5.38126 12.6807-5.71305 12.6288-6.03447 12.5874-6.36626 12.5044-6.65658 12.38-6.90543 12.2659-7.16464 12.1104-7.37201 11.903-7.52754 11.6957-7.69343 11.4261-7.77638 11.0943-7.77638 10.8714-7.77638 10.6485-7.72454 10.4307-7.63122 10.2233-7.54827 10.016-7.44459 9.80861-7.32017 9.60124-7.19574 9.40424-7.05058 9.22797-6.88469 9.04652-6.72916 8.88063-6.584 8.73028-6.44921L8.73028-6.13816C8.73028-5.77526 8.71473-5.39681 8.68881-4.99762 8.6577-4.6088 8.6266-4.2148 8.58512-3.81561 8.54365-3.42679 8.50736-3.05353 8.48144-2.69581 8.45033-2.33291 8.43997-2.01149 8.43997-1.72117 8.43997-1.47233 8.4607-1.26496 8.50218-1.09906 8.54365-0.933166 8.61104-0.798374 8.70955-0.705059 8.80286-0.606557 8.92728-0.539162 9.08281-0.497688 9.23316-0.466582 9.41461-0.456214 9.62197-0.456214L10.1611-0.456214 10.1611 0C9.82934 0.0103685 9.50792 0.020737 9.20723 0.020737 8.91692 0.0311055 8.63178 0.0466582 8.35702 0.062211 8.09262 0.0881322 7.83859 0.114054 7.58975 0.145159 7.3409 0.186633 7.09206 0.248844 6.84321 0.331792 6.89506-0.0518425 6.95208-0.482135 7.00911-0.953903 7.07651-1.43604 7.13872-1.91817 7.19574-2.40549 7.26314-2.88763 7.3098-3.3594 7.3409-3.81561 7.36682-4.28219 7.38238-4.69175 7.38238-5.03909 7.38238-5.38126 7.36164-5.71305 7.32017-6.03447 7.27869-6.36626 7.19574-6.65658 7.07132-6.90543 6.95727-7.16464 6.79137-7.37201 6.57363-7.52754 6.36626-7.69343 6.09668-7.77638 5.76489-7.77638 5.54197-7.77638 5.31386-7.72454 5.08057-7.63122 4.85765-7.53272 4.64509-7.41348 4.43772-7.27869 4.23035-7.13872 4.02816-6.98837 3.83635-6.82248 3.6549-6.65658 3.48382-6.50105 3.31792-6.36626 3.28682-6.04484 3.2609-5.71305 3.23497-5.37089 3.21942-5.03909 3.20387-4.69693 3.1935-4.35477 3.17795-4.02298 3.16239-3.69119 3.15203-3.3594 3.15203-3.03797 3.15203-2.74765 3.15203-2.48844 3.15203-2.05815 3.15721-1.7108 3.17276-1.45159 3.19868-1.18719 3.24534-0.979824 3.31792-0.829481 3.40087-0.689505 3.51492-0.591004 3.67045-0.539162 3.83635-0.482135 4.05409-0.456214 4.33404-0.456214L4.85246-0.456214 4.85246 0 4.66583 0C4.04372 0 3.47345 0.020737 2.96539 0.062211 2.4677 0.114054 1.99075 0.20737 1.53454 0.331792 1.66933-0.62211 1.78338-1.60193 1.86633-2.61286 1.95965-3.61861 2.01149-4.65028 2.01149-5.70268 2.01149-5.96189 1.99594-6.21074 1.97002-6.44921 1.93891-6.69806 1.87152-6.91579 1.76265-7.1128 1.66415-7.30461 1.50343-7.46533 1.28569-7.58975 1.07832-7.71417 0.777639-7.77638 0.394003-7.77638L0.228107-7.77638 0.228107-8.25333C0.518425-8.2637 0.777639-8.27925 1.01611-8.29481 1.26496-8.30517 1.5138-8.32591 1.76265-8.35702 2.01149-8.39849 2.26552-8.44515 2.52992-8.50218 2.78913-8.56957 3.095-8.6577 3.44234-8.77176 3.38532-8.46589 3.32311-8.14965 3.25571-7.81785 3.19868-7.49643 3.15203-7.20093 3.11055-6.92616 3.44234-7.22685 3.7534-7.49125 4.04372-7.71417 4.33404-7.94746 4.61399-8.13928 4.89394-8.29481 5.1687-8.44515 5.44347-8.56439 5.72342-8.64734 6.01373-8.73028 6.30924-8.77176 6.61511-8.77176 6.79137-8.77176 6.978-8.74065 7.17501-8.68881 7.38238-8.64734 7.57938-8.56439 7.77638-8.43997 7.9682-8.32591 8.13409-8.16002 8.27407-7.94228 8.42441-7.71935 8.54365-7.43422 8.6266-7.09206 8.94284-7.36682 9.23316-7.61048 9.49755-7.81785 9.77232-8.03559 10.0419-8.21704 10.3063-8.35702 10.5655-8.49181 10.8299-8.59549 11.0943-8.66807 11.3691-8.73547 11.6594-8.77176 11.9653-8.77176 12.1726-8.77176 12.3904-8.73547 12.6288-8.66807 12.8777-8.61104 13.1058-8.48662 13.3132-8.29481 13.5205-8.0978 13.6916-7.82822 13.8316-7.48606 13.9819-7.15427 14.0597-6.70324 14.0597-6.13816 14.0597-5.77526 14.039-5.39681 13.9975-4.99762 13.9664-4.6088 13.9353-4.2148 13.8938-3.81561 13.8627-3.42679 13.8368-3.05353 13.8109-2.69581 13.7797-2.33291 13.7694-2.01149 13.7694-1.72117 13.7694-1.47233 13.7901-1.26496 13.8316-1.09906 13.8731-0.933166 13.9405-0.798374 14.039-0.705059 14.1323-0.606557 14.2515-0.539162 14.3915-0.497688 14.5418-0.466582 14.7285-0.456214 14.9514-0.456214L15.4906-0.456214Z" transform="matrix(1 0 0 1.00429 615.279 536.526)"/><path d="M0.539162-1.53454C0.539162-1.90781 0.632478-2.22923 0.829481-2.50918 1.03685-2.7995 1.29088-3.03797 1.59675-3.23497 1.91299-3.44234 2.26552-3.60824 2.65434-3.73266 3.05353-3.86745 3.44753-3.97114 3.83635-4.04372 4.21998-4.12667 4.58806-4.17851 4.93541-4.20961 5.29312-4.25109 5.58344-4.27701 5.80636-4.29256 5.83228-4.59325 5.85302-4.87838 5.86858-5.14278 5.87894-5.41754 5.88931-5.68194 5.88931-5.93079 5.88931-6.23147 5.85821-6.52179 5.80636-6.80174 5.76489-7.07651 5.67157-7.32017 5.53678-7.52754 5.41236-7.74528 5.23091-7.92154 4.99762-8.04596 4.7747-8.18075 4.4792-8.25333 4.10593-8.25333 3.84153-8.25333 3.59787-8.20149 3.38013-8.10817 3.15721-8.00967 2.96539-7.88007 2.7995-7.71417 2.64397-7.54827 2.51955-7.34609 2.42623-7.1128 2.34328-6.88987 2.30181-6.65658 2.30181-6.40774 2.30181-6.30924 2.30699-6.20555 2.32255-6.09668 2.34847-5.99818 2.37439-5.8945 2.40549-5.78563 2.33291-5.70268 2.22923-5.6301 2.09444-5.57826 1.97002-5.53678 1.84559-5.51605 1.72117-5.51605 1.62267-5.51605 1.52417-5.52641 1.43085-5.55752 1.34791-5.58344 1.26496-5.6301 1.18201-5.70268 1.10943-5.77007 1.05759-5.85302 1.01611-5.95152 0.97464-6.06039 0.953903-6.19 0.953903-6.34553 0.953903-6.70324 1.07832-7.03503 1.32717-7.3409 1.57601-7.64159 1.89225-7.9008 2.28107-8.10817 2.66471-8.31554 3.07945-8.47107 3.52529-8.58512 3.98151-8.70955 4.40661-8.77176 4.81099-8.77176 5.56789-8.77176 6.16408-8.59031 6.59437-8.23259 7.03503-7.88525 7.25796-7.30461 7.25796-6.49069 7.25796-6.12779 7.2424-5.74415 7.21648-5.32941 7.18537-4.91467 7.15427-4.49993 7.1128-4.08519 7.07132-3.67045 7.03503-3.27645 7.00911-2.90318 6.978-2.54028 6.96764-2.24478 6.96764-2.01149 6.96764-1.59675 7.01429-1.27014 7.1128-1.03685 7.22166-0.813928 7.38238-0.705059 7.58975-0.705059 7.71417-0.705059 7.83859-0.736165 7.96301-0.808744 8.08744-0.891692 8.20149-0.979824 8.31554-1.07832 8.42441-1.17164 8.52291-1.27533 8.60586-1.38938 8.68881-1.49825 8.7562-1.5812 8.81323-1.63822L9.16576-1.34791C8.92728-1.01611 8.71473-0.751716 8.52291-0.559899 8.32591-0.362898 8.13928-0.20737 7.96301-0.0829481 7.79712 0.0259212 7.63122 0.0933166 7.46533 0.124422 7.29943 0.165896 7.13872 0.186633 6.98837 0.186633 6.73953 0.186633 6.52179 0.13479 6.34553 0.041474 6.17963-0.041474 6.03965-0.155528 5.93079-0.311055 5.81673-0.476951 5.7286-0.653217 5.6612-0.850218 5.60418-1.05759 5.56789-1.27014 5.55752-1.49307 5.4331-1.27014 5.27757-1.05759 5.10131-0.850218 4.91986-0.653217 4.71249-0.476951 4.4792-0.311055 4.24072-0.155528 3.97114-0.041474 3.67045 0.041474 3.38013 0.13479 3.04834 0.186633 2.67507 0.186633 2.22923 0.186633 1.87152 0.129606 1.59675 0.020737 1.3168-0.0881322 1.09906-0.228107 0.933166-0.394003 0.777639-0.570269 0.673952-0.7569 0.62211-0.953903 0.565083-1.16127 0.539162-1.35309 0.539162-1.53454ZM3.1935-0.518425C3.60824-0.518425 3.96077-0.606557 4.25109-0.788007 4.55178-0.979824 4.80062-1.22867 4.99762-1.53454 5.18944-1.83523 5.35015-2.18257 5.47457-2.57139 5.59899-2.97058 5.68713-3.38013 5.74415-3.79487 5.52123-3.77932 5.27239-3.75858 4.99762-3.73266 4.71767-3.70156 4.4429-3.66008 4.16814-3.60824 3.88819-3.55121 3.61861-3.47345 3.3594-3.38013 3.095-3.28163 2.86171-3.15721 2.65434-3.00687 2.45734-2.86689 2.30181-2.68544 2.17739-2.4677 2.05296-2.26033 1.99075-2.01149 1.99075-1.72117 1.99075-1.47233 2.02186-1.27014 2.09444-1.1198 2.17739-0.964271 2.28107-0.839848 2.40549-0.746533 2.52992-0.663584 2.65952-0.601373 2.7995-0.559899 2.93429-0.528795 3.06908-0.518425 3.1935-0.518425Z" transform="matrix(1 0 0 1.00429 631.022 536.526)"/><path d="M15.4906 0C15.1432 0.0103685 14.827 0.020737 14.5366 0.020737 14.2463 0.0311055 13.9612 0.0466582 13.6864 0.062211 13.422 0.0881322 13.168 0.114054 12.9192 0.145159 12.6703 0.186633 12.4215 0.248844 12.1726 0.331792 12.2245-0.0518425 12.2815-0.482135 12.3385-0.953903 12.4059-1.43604 12.4681-1.91817 12.5252-2.40549 12.577-2.88763 12.6185-3.3594 12.6496-3.81561 12.6911-4.28219 12.7118-4.69175 12.7118-5.03909 12.7118-5.38126 12.6807-5.71305 12.6288-6.03447 12.5874-6.36626 12.5044-6.65658 12.38-6.90543 12.2659-7.16464 12.1104-7.37201 11.903-7.52754 11.6957-7.69343 11.4261-7.77638 11.0943-7.77638 10.8714-7.77638 10.6485-7.72454 10.4307-7.63122 10.2233-7.54827 10.016-7.44459 9.80861-7.32017 9.60124-7.19574 9.40424-7.05058 9.22797-6.88469 9.04652-6.72916 8.88063-6.584 8.73028-6.44921L8.73028-6.13816C8.73028-5.77526 8.71473-5.39681 8.68881-4.99762 8.6577-4.6088 8.6266-4.2148 8.58512-3.81561 8.54365-3.42679 8.50736-3.05353 8.48144-2.69581 8.45033-2.33291 8.43997-2.01149 8.43997-1.72117 8.43997-1.47233 8.4607-1.26496 8.50218-1.09906 8.54365-0.933166 8.61104-0.798374 8.70955-0.705059 8.80286-0.606557 8.92728-0.539162 9.08281-0.497688 9.23316-0.466582 9.41461-0.456214 9.62197-0.456214L10.1611-0.456214 10.1611 0C9.82934 0.0103685 9.50792 0.020737 9.20723 0.020737 8.91692 0.0311055 8.63178 0.0466582 8.35702 0.062211 8.09262 0.0881322 7.83859 0.114054 7.58975 0.145159 7.3409 0.186633 7.09206 0.248844 6.84321 0.331792 6.89506-0.0518425 6.95208-0.482135 7.00911-0.953903 7.07651-1.43604 7.13872-1.91817 7.19574-2.40549 7.26314-2.88763 7.3098-3.3594 7.3409-3.81561 7.36682-4.28219 7.38238-4.69175 7.38238-5.03909 7.38238-5.38126 7.36164-5.71305 7.32017-6.03447 7.27869-6.36626 7.19574-6.65658 7.07132-6.90543 6.95727-7.16464 6.79137-7.37201 6.57363-7.52754 6.36626-7.69343 6.09668-7.77638 5.76489-7.77638 5.54197-7.77638 5.31386-7.72454 5.08057-7.63122 4.85765-7.53272 4.64509-7.41348 4.43772-7.27869 4.23035-7.13872 4.02816-6.98837 3.83635-6.82248 3.6549-6.65658 3.48382-6.50105 3.31792-6.36626 3.28682-6.04484 3.2609-5.71305 3.23497-5.37089 3.21942-5.03909 3.20387-4.69693 3.1935-4.35477 3.17795-4.02298 3.16239-3.69119 3.15203-3.3594 3.15203-3.03797 3.15203-2.74765 3.15203-2.48844 3.15203-2.05815 3.15721-1.7108 3.17276-1.45159 3.19868-1.18719 3.24534-0.979824 3.31792-0.829481 3.40087-0.689505 3.51492-0.591004 3.67045-0.539162 3.83635-0.482135 4.05409-0.456214 4.33404-0.456214L4.85246-0.456214 4.85246 0 4.66583 0C4.04372 0 3.47345 0.020737 2.96539 0.062211 2.4677 0.114054 1.99075 0.20737 1.53454 0.331792 1.66933-0.62211 1.78338-1.60193 1.86633-2.61286 1.95965-3.61861 2.01149-4.65028 2.01149-5.70268 2.01149-5.96189 1.99594-6.21074 1.97002-6.44921 1.93891-6.69806 1.87152-6.91579 1.76265-7.1128 1.66415-7.30461 1.50343-7.46533 1.28569-7.58975 1.07832-7.71417 0.777639-7.77638 0.394003-7.77638L0.228107-7.77638 0.228107-8.25333C0.518425-8.2637 0.777639-8.27925 1.01611-8.29481 1.26496-8.30517 1.5138-8.32591 1.76265-8.35702 2.01149-8.39849 2.26552-8.44515 2.52992-8.50218 2.78913-8.56957 3.095-8.6577 3.44234-8.77176 3.38532-8.46589 3.32311-8.14965 3.25571-7.81785 3.19868-7.49643 3.15203-7.20093 3.11055-6.92616 3.44234-7.22685 3.7534-7.49125 4.04372-7.71417 4.33404-7.94746 4.61399-8.13928 4.89394-8.29481 5.1687-8.44515 5.44347-8.56439 5.72342-8.64734 6.01373-8.73028 6.30924-8.77176 6.61511-8.77176 6.79137-8.77176 6.978-8.74065 7.17501-8.68881 7.38238-8.64734 7.57938-8.56439 7.77638-8.43997 7.9682-8.32591 8.13409-8.16002 8.27407-7.94228 8.42441-7.71935 8.54365-7.43422 8.6266-7.09206 8.94284-7.36682 9.23316-7.61048 9.49755-7.81785 9.77232-8.03559 10.0419-8.21704 10.3063-8.35702 10.5655-8.49181 10.8299-8.59549 11.0943-8.66807 11.3691-8.73547 11.6594-8.77176 11.9653-8.77176 12.1726-8.77176 12.3904-8.73547 12.6288-8.66807 12.8777-8.61104 13.1058-8.48662 13.3132-8.29481 13.5205-8.0978 13.6916-7.82822 13.8316-7.48606 13.9819-7.15427 14.0597-6.70324 14.0597-6.13816 14.0597-5.77526 14.039-5.39681 13.9975-4.99762 13.9664-4.6088 13.9353-4.2148 13.8938-3.81561 13.8627-3.42679 13.8368-3.05353 13.8109-2.69581 13.7797-2.33291 13.7694-2.01149 13.7694-1.72117 13.7694-1.47233 13.7901-1.26496 13.8316-1.09906 13.8731-0.933166 13.9405-0.798374 14.039-0.705059 14.1323-0.606557 14.2515-0.539162 14.3915-0.497688 14.5418-0.466582 14.7285-0.456214 14.9514-0.456214L15.4906-0.456214Z" transform="matrix(1 0 0 1.00429 640.046 536.526)"/><path d="M0.539162-1.53454C0.539162-1.90781 0.632478-2.22923 0.829481-2.50918 1.03685-2.7995 1.29088-3.03797 1.59675-3.23497 1.91299-3.44234 2.26552-3.60824 2.65434-3.73266 3.05353-3.86745 3.44753-3.97114 3.83635-4.04372 4.21998-4.12667 4.58806-4.17851 4.93541-4.20961 5.29312-4.25109 5.58344-4.27701 5.80636-4.29256 5.83228-4.59325 5.85302-4.87838 5.86858-5.14278 5.87894-5.41754 5.88931-5.68194 5.88931-5.93079 5.88931-6.23147 5.85821-6.52179 5.80636-6.80174 5.76489-7.07651 5.67157-7.32017 5.53678-7.52754 5.41236-7.74528 5.23091-7.92154 4.99762-8.04596 4.7747-8.18075 4.4792-8.25333 4.10593-8.25333 3.84153-8.25333 3.59787-8.20149 3.38013-8.10817 3.15721-8.00967 2.96539-7.88007 2.7995-7.71417 2.64397-7.54827 2.51955-7.34609 2.42623-7.1128 2.34328-6.88987 2.30181-6.65658 2.30181-6.40774 2.30181-6.30924 2.30699-6.20555 2.32255-6.09668 2.34847-5.99818 2.37439-5.8945 2.40549-5.78563 2.33291-5.70268 2.22923-5.6301 2.09444-5.57826 1.97002-5.53678 1.84559-5.51605 1.72117-5.51605 1.62267-5.51605 1.52417-5.52641 1.43085-5.55752 1.34791-5.58344 1.26496-5.6301 1.18201-5.70268 1.10943-5.77007 1.05759-5.85302 1.01611-5.95152 0.97464-6.06039 0.953903-6.19 0.953903-6.34553 0.953903-6.70324 1.07832-7.03503 1.32717-7.3409 1.57601-7.64159 1.89225-7.9008 2.28107-8.10817 2.66471-8.31554 3.07945-8.47107 3.52529-8.58512 3.98151-8.70955 4.40661-8.77176 4.81099-8.77176 5.56789-8.77176 6.16408-8.59031 6.59437-8.23259 7.03503-7.88525 7.25796-7.30461 7.25796-6.49069 7.25796-6.12779 7.2424-5.74415 7.21648-5.32941 7.18537-4.91467 7.15427-4.49993 7.1128-4.08519 7.07132-3.67045 7.03503-3.27645 7.00911-2.90318 6.978-2.54028 6.96764-2.24478 6.96764-2.01149 6.96764-1.59675 7.01429-1.27014 7.1128-1.03685 7.22166-0.813928 7.38238-0.705059 7.58975-0.705059 7.71417-0.705059 7.83859-0.736165 7.96301-0.808744 8.08744-0.891692 8.20149-0.979824 8.31554-1.07832 8.42441-1.17164 8.52291-1.27533 8.60586-1.38938 8.68881-1.49825 8.7562-1.5812 8.81323-1.63822L9.16576-1.34791C8.92728-1.01611 8.71473-0.751716 8.52291-0.559899 8.32591-0.362898 8.13928-0.20737 7.96301-0.0829481 7.79712 0.0259212 7.63122 0.0933166 7.46533 0.124422 7.29943 0.165896 7.13872 0.186633 6.98837 0.186633 6.73953 0.186633 6.52179 0.13479 6.34553 0.041474 6.17963-0.041474 6.03965-0.155528 5.93079-0.311055 5.81673-0.476951 5.7286-0.653217 5.6612-0.850218 5.60418-1.05759 5.56789-1.27014 5.55752-1.49307 5.4331-1.27014 5.27757-1.05759 5.10131-0.850218 4.91986-0.653217 4.71249-0.476951 4.4792-0.311055 4.24072-0.155528 3.97114-0.041474 3.67045 0.041474 3.38013 0.13479 3.04834 0.186633 2.67507 0.186633 2.22923 0.186633 1.87152 0.129606 1.59675 0.020737 1.3168-0.0881322 1.09906-0.228107 0.933166-0.394003 0.777639-0.570269 0.673952-0.7569 0.62211-0.953903 0.565083-1.16127 0.539162-1.35309 0.539162-1.53454ZM3.1935-0.518425C3.60824-0.518425 3.96077-0.606557 4.25109-0.788007 4.55178-0.979824 4.80062-1.22867 4.99762-1.53454 5.18944-1.83523 5.35015-2.18257 5.47457-2.57139 5.59899-2.97058 5.68713-3.38013 5.74415-3.79487 5.52123-3.77932 5.27239-3.75858 4.99762-3.73266 4.71767-3.70156 4.4429-3.66008 4.16814-3.60824 3.88819-3.55121 3.61861-3.47345 3.3594-3.38013 3.095-3.28163 2.86171-3.15721 2.65434-3.00687 2.45734-2.86689 2.30181-2.68544 2.17739-2.4677 2.05296-2.26033 1.99075-2.01149 1.99075-1.72117 1.99075-1.47233 2.02186-1.27014 2.09444-1.1198 2.17739-0.964271 2.28107-0.839848 2.40549-0.746533 2.52992-0.663584 2.65952-0.601373 2.7995-0.559899 2.93429-0.528795 3.06908-0.518425 3.1935-0.518425Z" transform="matrix(1 0 0 1.00429 655.789 536.526)"/></g></svg>